<?xml version="1.0" encoding="utf-8" standalone="no"?>
<!DOCTYPE svg PUBLIC "-//W3C//DTD SVG 1.1//EN"
  "http://www.w3.org/Graphics/SVG/1.1/DTD/svg11.dtd">
<!-- Created with matplotlib (https://matplotlib.org/) -->
<svg height="345.6pt" version="1.1" viewBox="0 0 460.8 345.6" width="460.8pt" xmlns="http://www.w3.org/2000/svg" xmlns:xlink="http://www.w3.org/1999/xlink">
 <defs>
  <style type="text/css">
*{stroke-linecap:butt;stroke-linejoin:round;}
  </style>
 </defs>
 <g id="figure_1">
  <g id="patch_1">
   <path d="M 0 345.6 
L 460.8 345.6 
L 460.8 0 
L 0 0 
z
" style="fill:#ffffff;"/>
  </g>
  <g id="axes_1">
   <g id="patch_2">
    <path d="M 57.6 307.584 
L 414.72 307.584 
L 414.72 41.472 
L 57.6 41.472 
z
" style="fill:#ffffff;"/>
   </g>
   <g id="matplotlib.axis_1">
    <g id="xtick_1">
     <g id="line2d_1">
      <path clip-path="url(#pddb49b7da4)" d="M 91.94716 307.584 
L 91.94716 41.472 
" style="fill:none;stroke:#d3d3d3;stroke-linecap:square;stroke-width:0.8;"/>
     </g>
     <g id="line2d_2">
      <defs>
       <path d="M 0 4 
L 0 -4 
" id="m1d84c04222" style="stroke:#000000;stroke-width:0.8;"/>
      </defs>
      <g>
       <use style="stroke:#000000;stroke-width:0.8;" x="91.94716" xlink:href="#m1d84c04222" y="307.584"/>
      </g>
     </g>
     <g id="line2d_3">
      <g>
       <use style="stroke:#000000;stroke-width:0.8;" x="91.94716" xlink:href="#m1d84c04222" y="41.472"/>
      </g>
     </g>
     <g id="text_1">
      <!-- −3 -->
      <defs>
       <path d="M 4.796875 28.703125 
L 4.796875 21.90625 
L 55.203125 21.90625 
L 55.203125 28.703125 
z
" id="HelveticaNeue-8722"/>
       <path d="M 21.796875 40.5 
L 21.796875 33.296875 
Q 24.203125 33.59375 26.90625 33.59375 
Q 30.09375 33.59375 32.84375 32.75 
Q 35.59375 31.90625 37.59375 30.15625 
Q 39.59375 28.40625 40.796875 25.84375 
Q 42 23.296875 42 20 
Q 42 16.796875 40.75 14.25 
Q 39.5 11.703125 37.390625 9.953125 
Q 35.296875 8.203125 32.5 7.25 
Q 29.703125 6.296875 26.59375 6.296875 
Q 19.296875 6.296875 15.5 10.640625 
Q 11.703125 15 11.5 21.90625 
L 3 21.90625 
Q 2.90625 16.40625 4.546875 12.09375 
Q 6.203125 7.796875 9.296875 4.84375 
Q 12.40625 1.90625 16.796875 0.40625 
Q 21.203125 -1.09375 26.59375 -1.09375 
Q 31.59375 -1.09375 36.046875 0.25 
Q 40.5 1.59375 43.796875 4.296875 
Q 47.09375 7 49.046875 11.046875 
Q 51 15.09375 51 20.40625 
Q 51 26.796875 47.84375 31.5 
Q 44.703125 36.203125 38.203125 37.59375 
L 38.203125 37.796875 
Q 42.40625 39.703125 45.203125 43.390625 
Q 48 47.09375 48 51.90625 
Q 48 56.796875 46.34375 60.390625 
Q 44.703125 64 41.796875 66.296875 
Q 38.90625 68.59375 34.953125 69.75 
Q 31 70.90625 26.40625 70.90625 
Q 21.09375 70.90625 17.046875 69.203125 
Q 13 67.5 10.296875 64.5 
Q 7.59375 61.5 6.140625 57.296875 
Q 4.703125 53.09375 4.5 48 
L 13 48 
Q 13 51.09375 13.796875 53.890625 
Q 14.59375 56.703125 16.25 58.796875 
Q 17.90625 60.90625 20.453125 62.15625 
Q 23 63.40625 26.40625 63.40625 
Q 31.796875 63.40625 35.390625 60.546875 
Q 39 57.703125 39 52 
Q 39 49.203125 37.890625 47 
Q 36.796875 44.796875 34.9375 43.34375 
Q 33.09375 41.90625 30.640625 41.15625 
Q 28.203125 40.40625 25.5 40.40625 
L 23.703125 40.40625 
Q 23.203125 40.40625 22.703125 40.40625 
Q 22.296875 40.40625 21.796875 40.5 
z
" id="HelveticaNeue-51"/>
      </defs>
      <g transform="translate(86.167473 322.224625)scale(0.1 -0.1)">
       <use xlink:href="#HelveticaNeue-8722"/>
       <use x="59.999985" xlink:href="#HelveticaNeue-51"/>
      </g>
     </g>
    </g>
    <g id="xtick_2">
     <g id="line2d_4">
      <path clip-path="url(#pddb49b7da4)" d="M 148.561016 307.584 
L 148.561016 41.472 
" style="fill:none;stroke:#d3d3d3;stroke-linecap:square;stroke-width:0.8;"/>
     </g>
     <g id="line2d_5">
      <g>
       <use style="stroke:#000000;stroke-width:0.8;" x="148.561016" xlink:href="#m1d84c04222" y="307.584"/>
      </g>
     </g>
     <g id="line2d_6">
      <g>
       <use style="stroke:#000000;stroke-width:0.8;" x="148.561016" xlink:href="#m1d84c04222" y="41.472"/>
      </g>
     </g>
     <g id="text_2">
      <!-- −2 -->
      <defs>
       <path d="M 4.40625 45.796875 
L 12.90625 45.796875 
Q 12.796875 49 13.546875 52.140625 
Q 14.296875 55.296875 16 57.796875 
Q 17.703125 60.296875 20.34375 61.84375 
Q 23 63.40625 26.703125 63.40625 
Q 29.5 63.40625 32 62.5 
Q 34.5 61.59375 36.34375 59.890625 
Q 38.203125 58.203125 39.296875 55.84375 
Q 40.40625 53.5 40.40625 50.59375 
Q 40.40625 46.90625 39.25 44.09375 
Q 38.09375 41.296875 35.84375 38.890625 
Q 33.59375 36.5 30.1875 34.140625 
Q 26.796875 31.796875 22.296875 29 
Q 18.59375 26.796875 15.1875 24.296875 
Q 11.796875 21.796875 9.09375 18.5 
Q 6.40625 15.203125 4.65625 10.75 
Q 2.90625 6.296875 2.40625 0 
L 48.703125 0 
L 48.703125 7.5 
L 12.296875 7.5 
Q 12.90625 10.796875 14.84375 13.34375 
Q 16.796875 15.90625 19.546875 18.09375 
Q 22.296875 20.296875 25.59375 22.25 
Q 28.90625 24.203125 32.203125 26.203125 
Q 35.5 28.296875 38.59375 30.59375 
Q 41.703125 32.90625 44.09375 35.75 
Q 46.5 38.59375 47.953125 42.1875 
Q 49.40625 45.796875 49.40625 50.5 
Q 49.40625 55.5 47.65625 59.296875 
Q 45.90625 63.09375 42.90625 65.640625 
Q 39.90625 68.203125 35.84375 69.546875 
Q 31.796875 70.90625 27.203125 70.90625 
Q 21.59375 70.90625 17.1875 69 
Q 12.796875 67.09375 9.84375 63.75 
Q 6.90625 60.40625 5.5 55.796875 
Q 4.09375 51.203125 4.40625 45.796875 
z
" id="HelveticaNeue-50"/>
      </defs>
      <g transform="translate(142.781328 322.224625)scale(0.1 -0.1)">
       <use xlink:href="#HelveticaNeue-8722"/>
       <use x="59.999985" xlink:href="#HelveticaNeue-50"/>
      </g>
     </g>
    </g>
    <g id="xtick_3">
     <g id="line2d_7">
      <path clip-path="url(#pddb49b7da4)" d="M 205.174871 307.584 
L 205.174871 41.472 
" style="fill:none;stroke:#d3d3d3;stroke-linecap:square;stroke-width:0.8;"/>
     </g>
     <g id="line2d_8">
      <g>
       <use style="stroke:#000000;stroke-width:0.8;" x="205.174871" xlink:href="#m1d84c04222" y="307.584"/>
      </g>
     </g>
     <g id="line2d_9">
      <g>
       <use style="stroke:#000000;stroke-width:0.8;" x="205.174871" xlink:href="#m1d84c04222" y="41.472"/>
      </g>
     </g>
     <g id="text_3">
      <!-- −1 -->
      <defs>
       <path d="M 35.59375 0 
L 35.59375 70.90625 
L 29.09375 70.90625 
Q 28.40625 66.90625 26.5 64.296875 
Q 24.59375 61.703125 21.84375 60.203125 
Q 19.09375 58.703125 15.6875 58.140625 
Q 12.296875 57.59375 8.703125 57.59375 
L 8.703125 50.796875 
L 27.09375 50.796875 
L 27.09375 0 
z
" id="HelveticaNeue-49"/>
      </defs>
      <g transform="translate(199.395184 322.224625)scale(0.1 -0.1)">
       <use xlink:href="#HelveticaNeue-8722"/>
       <use x="59.999985" xlink:href="#HelveticaNeue-49"/>
      </g>
     </g>
    </g>
    <g id="xtick_4">
     <g id="line2d_10">
      <path clip-path="url(#pddb49b7da4)" d="M 261.788726 307.584 
L 261.788726 41.472 
" style="fill:none;stroke:#d3d3d3;stroke-linecap:square;stroke-width:0.8;"/>
     </g>
     <g id="line2d_11">
      <g>
       <use style="stroke:#000000;stroke-width:0.8;" x="261.788726" xlink:href="#m1d84c04222" y="307.584"/>
      </g>
     </g>
     <g id="line2d_12">
      <g>
       <use style="stroke:#000000;stroke-width:0.8;" x="261.788726" xlink:href="#m1d84c04222" y="41.472"/>
      </g>
     </g>
     <g id="text_4">
      <!-- 0 -->
      <defs>
       <path d="M 13.203125 34.90625 
Q 13.203125 37.5 13.25 40.640625 
Q 13.296875 43.796875 13.75 46.9375 
Q 14.203125 50.09375 15.046875 53.09375 
Q 15.90625 56.09375 17.546875 58.34375 
Q 19.203125 60.59375 21.703125 62 
Q 24.203125 63.40625 27.796875 63.40625 
Q 31.40625 63.40625 33.90625 62 
Q 36.40625 60.59375 38.046875 58.34375 
Q 39.703125 56.09375 40.546875 53.09375 
Q 41.40625 50.09375 41.84375 46.9375 
Q 42.296875 43.796875 42.34375 40.640625 
Q 42.40625 37.5 42.40625 34.90625 
Q 42.40625 30.90625 42.15625 25.953125 
Q 41.90625 21 40.546875 16.640625 
Q 39.203125 12.296875 36.203125 9.296875 
Q 33.203125 6.296875 27.796875 6.296875 
Q 22.40625 6.296875 19.40625 9.296875 
Q 16.40625 12.296875 15.046875 16.640625 
Q 13.703125 21 13.453125 25.953125 
Q 13.203125 30.90625 13.203125 34.90625 
z
M 4.203125 34.796875 
Q 4.203125 30.90625 4.390625 26.703125 
Q 4.59375 22.5 5.390625 18.5 
Q 6.203125 14.5 7.703125 10.953125 
Q 9.203125 7.40625 11.796875 4.703125 
Q 14.40625 2 18.34375 0.453125 
Q 22.296875 -1.09375 27.796875 -1.09375 
Q 33.40625 -1.09375 37.296875 0.453125 
Q 41.203125 2 43.796875 4.703125 
Q 46.40625 7.40625 47.90625 10.953125 
Q 49.40625 14.5 50.203125 18.5 
Q 51 22.5 51.203125 26.703125 
Q 51.40625 30.90625 51.40625 34.796875 
Q 51.40625 38.703125 51.203125 42.890625 
Q 51 47.09375 50.203125 51.09375 
Q 49.40625 55.09375 47.90625 58.6875 
Q 46.40625 62.296875 43.796875 65 
Q 41.203125 67.703125 37.25 69.296875 
Q 33.296875 70.90625 27.796875 70.90625 
Q 22.296875 70.90625 18.34375 69.296875 
Q 14.40625 67.703125 11.796875 65 
Q 9.203125 62.296875 7.703125 58.6875 
Q 6.203125 55.09375 5.390625 51.09375 
Q 4.59375 47.09375 4.390625 42.890625 
Q 4.203125 38.703125 4.203125 34.796875 
z
" id="HelveticaNeue-48"/>
      </defs>
      <g transform="translate(259.009039 322.224625)scale(0.1 -0.1)">
       <use xlink:href="#HelveticaNeue-48"/>
      </g>
     </g>
    </g>
    <g id="xtick_5">
     <g id="line2d_13">
      <path clip-path="url(#pddb49b7da4)" d="M 318.402582 307.584 
L 318.402582 41.472 
" style="fill:none;stroke:#d3d3d3;stroke-linecap:square;stroke-width:0.8;"/>
     </g>
     <g id="line2d_14">
      <g>
       <use style="stroke:#000000;stroke-width:0.8;" x="318.402582" xlink:href="#m1d84c04222" y="307.584"/>
      </g>
     </g>
     <g id="line2d_15">
      <g>
       <use style="stroke:#000000;stroke-width:0.8;" x="318.402582" xlink:href="#m1d84c04222" y="41.472"/>
      </g>
     </g>
     <g id="text_5">
      <!-- 1 -->
      <g transform="translate(315.622894 322.224625)scale(0.1 -0.1)">
       <use xlink:href="#HelveticaNeue-49"/>
      </g>
     </g>
    </g>
    <g id="xtick_6">
     <g id="line2d_16">
      <path clip-path="url(#pddb49b7da4)" d="M 375.016437 307.584 
L 375.016437 41.472 
" style="fill:none;stroke:#d3d3d3;stroke-linecap:square;stroke-width:0.8;"/>
     </g>
     <g id="line2d_17">
      <g>
       <use style="stroke:#000000;stroke-width:0.8;" x="375.016437" xlink:href="#m1d84c04222" y="307.584"/>
      </g>
     </g>
     <g id="line2d_18">
      <g>
       <use style="stroke:#000000;stroke-width:0.8;" x="375.016437" xlink:href="#m1d84c04222" y="41.472"/>
      </g>
     </g>
     <g id="text_6">
      <!-- 2 -->
      <g transform="translate(372.23675 322.224625)scale(0.1 -0.1)">
       <use xlink:href="#HelveticaNeue-50"/>
      </g>
     </g>
    </g>
    <g id="xtick_7">
     <g id="line2d_19">
      <defs>
       <path d="M 0 2 
L 0 -2 
" id="m6496558133" style="stroke:#000000;stroke-width:0.6;"/>
      </defs>
      <g>
       <use style="stroke:#000000;stroke-width:0.6;" x="57.978847" xlink:href="#m6496558133" y="307.584"/>
      </g>
     </g>
     <g id="line2d_20">
      <g>
       <use style="stroke:#000000;stroke-width:0.6;" x="57.978847" xlink:href="#m6496558133" y="41.472"/>
      </g>
     </g>
    </g>
    <g id="xtick_8">
     <g id="line2d_21">
      <g>
       <use style="stroke:#000000;stroke-width:0.6;" x="69.301618" xlink:href="#m6496558133" y="307.584"/>
      </g>
     </g>
     <g id="line2d_22">
      <g>
       <use style="stroke:#000000;stroke-width:0.6;" x="69.301618" xlink:href="#m6496558133" y="41.472"/>
      </g>
     </g>
    </g>
    <g id="xtick_9">
     <g id="line2d_23">
      <g>
       <use style="stroke:#000000;stroke-width:0.6;" x="80.624389" xlink:href="#m6496558133" y="307.584"/>
      </g>
     </g>
     <g id="line2d_24">
      <g>
       <use style="stroke:#000000;stroke-width:0.6;" x="80.624389" xlink:href="#m6496558133" y="41.472"/>
      </g>
     </g>
    </g>
    <g id="xtick_10">
     <g id="line2d_25">
      <g>
       <use style="stroke:#000000;stroke-width:0.6;" x="103.269931" xlink:href="#m6496558133" y="307.584"/>
      </g>
     </g>
     <g id="line2d_26">
      <g>
       <use style="stroke:#000000;stroke-width:0.6;" x="103.269931" xlink:href="#m6496558133" y="41.472"/>
      </g>
     </g>
    </g>
    <g id="xtick_11">
     <g id="line2d_27">
      <g>
       <use style="stroke:#000000;stroke-width:0.6;" x="114.592703" xlink:href="#m6496558133" y="307.584"/>
      </g>
     </g>
     <g id="line2d_28">
      <g>
       <use style="stroke:#000000;stroke-width:0.6;" x="114.592703" xlink:href="#m6496558133" y="41.472"/>
      </g>
     </g>
    </g>
    <g id="xtick_12">
     <g id="line2d_29">
      <g>
       <use style="stroke:#000000;stroke-width:0.6;" x="125.915474" xlink:href="#m6496558133" y="307.584"/>
      </g>
     </g>
     <g id="line2d_30">
      <g>
       <use style="stroke:#000000;stroke-width:0.6;" x="125.915474" xlink:href="#m6496558133" y="41.472"/>
      </g>
     </g>
    </g>
    <g id="xtick_13">
     <g id="line2d_31">
      <g>
       <use style="stroke:#000000;stroke-width:0.6;" x="137.238245" xlink:href="#m6496558133" y="307.584"/>
      </g>
     </g>
     <g id="line2d_32">
      <g>
       <use style="stroke:#000000;stroke-width:0.6;" x="137.238245" xlink:href="#m6496558133" y="41.472"/>
      </g>
     </g>
    </g>
    <g id="xtick_14">
     <g id="line2d_33">
      <g>
       <use style="stroke:#000000;stroke-width:0.6;" x="159.883787" xlink:href="#m6496558133" y="307.584"/>
      </g>
     </g>
     <g id="line2d_34">
      <g>
       <use style="stroke:#000000;stroke-width:0.6;" x="159.883787" xlink:href="#m6496558133" y="41.472"/>
      </g>
     </g>
    </g>
    <g id="xtick_15">
     <g id="line2d_35">
      <g>
       <use style="stroke:#000000;stroke-width:0.6;" x="171.206558" xlink:href="#m6496558133" y="307.584"/>
      </g>
     </g>
     <g id="line2d_36">
      <g>
       <use style="stroke:#000000;stroke-width:0.6;" x="171.206558" xlink:href="#m6496558133" y="41.472"/>
      </g>
     </g>
    </g>
    <g id="xtick_16">
     <g id="line2d_37">
      <g>
       <use style="stroke:#000000;stroke-width:0.6;" x="182.529329" xlink:href="#m6496558133" y="307.584"/>
      </g>
     </g>
     <g id="line2d_38">
      <g>
       <use style="stroke:#000000;stroke-width:0.6;" x="182.529329" xlink:href="#m6496558133" y="41.472"/>
      </g>
     </g>
    </g>
    <g id="xtick_17">
     <g id="line2d_39">
      <g>
       <use style="stroke:#000000;stroke-width:0.6;" x="193.8521" xlink:href="#m6496558133" y="307.584"/>
      </g>
     </g>
     <g id="line2d_40">
      <g>
       <use style="stroke:#000000;stroke-width:0.6;" x="193.8521" xlink:href="#m6496558133" y="41.472"/>
      </g>
     </g>
    </g>
    <g id="xtick_18">
     <g id="line2d_41">
      <g>
       <use style="stroke:#000000;stroke-width:0.6;" x="216.497642" xlink:href="#m6496558133" y="307.584"/>
      </g>
     </g>
     <g id="line2d_42">
      <g>
       <use style="stroke:#000000;stroke-width:0.6;" x="216.497642" xlink:href="#m6496558133" y="41.472"/>
      </g>
     </g>
    </g>
    <g id="xtick_19">
     <g id="line2d_43">
      <g>
       <use style="stroke:#000000;stroke-width:0.6;" x="227.820413" xlink:href="#m6496558133" y="307.584"/>
      </g>
     </g>
     <g id="line2d_44">
      <g>
       <use style="stroke:#000000;stroke-width:0.6;" x="227.820413" xlink:href="#m6496558133" y="41.472"/>
      </g>
     </g>
    </g>
    <g id="xtick_20">
     <g id="line2d_45">
      <g>
       <use style="stroke:#000000;stroke-width:0.6;" x="239.143184" xlink:href="#m6496558133" y="307.584"/>
      </g>
     </g>
     <g id="line2d_46">
      <g>
       <use style="stroke:#000000;stroke-width:0.6;" x="239.143184" xlink:href="#m6496558133" y="41.472"/>
      </g>
     </g>
    </g>
    <g id="xtick_21">
     <g id="line2d_47">
      <g>
       <use style="stroke:#000000;stroke-width:0.6;" x="250.465955" xlink:href="#m6496558133" y="307.584"/>
      </g>
     </g>
     <g id="line2d_48">
      <g>
       <use style="stroke:#000000;stroke-width:0.6;" x="250.465955" xlink:href="#m6496558133" y="41.472"/>
      </g>
     </g>
    </g>
    <g id="xtick_22">
     <g id="line2d_49">
      <g>
       <use style="stroke:#000000;stroke-width:0.6;" x="273.111498" xlink:href="#m6496558133" y="307.584"/>
      </g>
     </g>
     <g id="line2d_50">
      <g>
       <use style="stroke:#000000;stroke-width:0.6;" x="273.111498" xlink:href="#m6496558133" y="41.472"/>
      </g>
     </g>
    </g>
    <g id="xtick_23">
     <g id="line2d_51">
      <g>
       <use style="stroke:#000000;stroke-width:0.6;" x="284.434269" xlink:href="#m6496558133" y="307.584"/>
      </g>
     </g>
     <g id="line2d_52">
      <g>
       <use style="stroke:#000000;stroke-width:0.6;" x="284.434269" xlink:href="#m6496558133" y="41.472"/>
      </g>
     </g>
    </g>
    <g id="xtick_24">
     <g id="line2d_53">
      <g>
       <use style="stroke:#000000;stroke-width:0.6;" x="295.75704" xlink:href="#m6496558133" y="307.584"/>
      </g>
     </g>
     <g id="line2d_54">
      <g>
       <use style="stroke:#000000;stroke-width:0.6;" x="295.75704" xlink:href="#m6496558133" y="41.472"/>
      </g>
     </g>
    </g>
    <g id="xtick_25">
     <g id="line2d_55">
      <g>
       <use style="stroke:#000000;stroke-width:0.6;" x="307.079811" xlink:href="#m6496558133" y="307.584"/>
      </g>
     </g>
     <g id="line2d_56">
      <g>
       <use style="stroke:#000000;stroke-width:0.6;" x="307.079811" xlink:href="#m6496558133" y="41.472"/>
      </g>
     </g>
    </g>
    <g id="xtick_26">
     <g id="line2d_57">
      <g>
       <use style="stroke:#000000;stroke-width:0.6;" x="329.725353" xlink:href="#m6496558133" y="307.584"/>
      </g>
     </g>
     <g id="line2d_58">
      <g>
       <use style="stroke:#000000;stroke-width:0.6;" x="329.725353" xlink:href="#m6496558133" y="41.472"/>
      </g>
     </g>
    </g>
    <g id="xtick_27">
     <g id="line2d_59">
      <g>
       <use style="stroke:#000000;stroke-width:0.6;" x="341.048124" xlink:href="#m6496558133" y="307.584"/>
      </g>
     </g>
     <g id="line2d_60">
      <g>
       <use style="stroke:#000000;stroke-width:0.6;" x="341.048124" xlink:href="#m6496558133" y="41.472"/>
      </g>
     </g>
    </g>
    <g id="xtick_28">
     <g id="line2d_61">
      <g>
       <use style="stroke:#000000;stroke-width:0.6;" x="352.370895" xlink:href="#m6496558133" y="307.584"/>
      </g>
     </g>
     <g id="line2d_62">
      <g>
       <use style="stroke:#000000;stroke-width:0.6;" x="352.370895" xlink:href="#m6496558133" y="41.472"/>
      </g>
     </g>
    </g>
    <g id="xtick_29">
     <g id="line2d_63">
      <g>
       <use style="stroke:#000000;stroke-width:0.6;" x="363.693666" xlink:href="#m6496558133" y="307.584"/>
      </g>
     </g>
     <g id="line2d_64">
      <g>
       <use style="stroke:#000000;stroke-width:0.6;" x="363.693666" xlink:href="#m6496558133" y="41.472"/>
      </g>
     </g>
    </g>
    <g id="xtick_30">
     <g id="line2d_65">
      <g>
       <use style="stroke:#000000;stroke-width:0.6;" x="386.339208" xlink:href="#m6496558133" y="307.584"/>
      </g>
     </g>
     <g id="line2d_66">
      <g>
       <use style="stroke:#000000;stroke-width:0.6;" x="386.339208" xlink:href="#m6496558133" y="41.472"/>
      </g>
     </g>
    </g>
    <g id="xtick_31">
     <g id="line2d_67">
      <g>
       <use style="stroke:#000000;stroke-width:0.6;" x="397.661979" xlink:href="#m6496558133" y="307.584"/>
      </g>
     </g>
     <g id="line2d_68">
      <g>
       <use style="stroke:#000000;stroke-width:0.6;" x="397.661979" xlink:href="#m6496558133" y="41.472"/>
      </g>
     </g>
    </g>
    <g id="xtick_32">
     <g id="line2d_69">
      <g>
       <use style="stroke:#000000;stroke-width:0.6;" x="408.98475" xlink:href="#m6496558133" y="307.584"/>
      </g>
     </g>
     <g id="line2d_70">
      <g>
       <use style="stroke:#000000;stroke-width:0.6;" x="408.98475" xlink:href="#m6496558133" y="41.472"/>
      </g>
     </g>
    </g>
    <g id="text_7">
     <!-- x -->
     <defs>
      <path d="M 20.296875 27.203125 
L 0.90625 0 
L 11.203125 0 
L 25.59375 21.40625 
L 40 0 
L 50.90625 0 
L 30.90625 27.90625 
L 48.703125 51.703125 
L 38.5 51.703125 
L 25.59375 33.59375 
L 13.203125 51.703125 
L 2.296875 51.703125 
z
" id="HelveticaNeue-120"/>
     </defs>
     <g transform="translate(233.052188 336.763687)scale(0.12 -0.12)">
      <use xlink:href="#HelveticaNeue-120"/>
     </g>
    </g>
   </g>
   <g id="matplotlib.axis_2">
    <g id="ytick_1">
     <g id="line2d_71">
      <path clip-path="url(#pddb49b7da4)" d="M 57.6 280.465931 
L 414.72 280.465931 
" style="fill:none;stroke:#d3d3d3;stroke-linecap:square;stroke-width:0.8;"/>
     </g>
     <g id="line2d_72">
      <defs>
       <path d="M 4 0 
L -4 -0 
" id="medf394d2b6" style="stroke:#000000;stroke-width:0.8;"/>
      </defs>
      <g>
       <use style="stroke:#000000;stroke-width:0.8;" x="57.6" xlink:href="#medf394d2b6" y="280.465931"/>
      </g>
     </g>
     <g id="line2d_73">
      <g>
       <use style="stroke:#000000;stroke-width:0.8;" x="414.72" xlink:href="#medf394d2b6" y="280.465931"/>
      </g>
     </g>
     <g id="text_8">
      <!-- −2.0 -->
      <defs>
       <path d="M 8.296875 11.09375 
L 8.296875 0 
L 19.40625 0 
L 19.40625 11.09375 
z
" id="HelveticaNeue-46"/>
      </defs>
      <g transform="translate(30.201563 284.036243)scale(0.1 -0.1)">
       <use xlink:href="#HelveticaNeue-8722"/>
       <use x="59.999985" xlink:href="#HelveticaNeue-50"/>
       <use x="115.599976" xlink:href="#HelveticaNeue-46"/>
       <use x="143.399963" xlink:href="#HelveticaNeue-48"/>
      </g>
     </g>
    </g>
    <g id="ytick_2">
     <g id="line2d_74">
      <path clip-path="url(#pddb49b7da4)" d="M 57.6 249.141846 
L 414.72 249.141846 
" style="fill:none;stroke:#d3d3d3;stroke-linecap:square;stroke-width:0.8;"/>
     </g>
     <g id="line2d_75">
      <g>
       <use style="stroke:#000000;stroke-width:0.8;" x="57.6" xlink:href="#medf394d2b6" y="249.141846"/>
      </g>
     </g>
     <g id="line2d_76">
      <g>
       <use style="stroke:#000000;stroke-width:0.8;" x="414.72" xlink:href="#medf394d2b6" y="249.141846"/>
      </g>
     </g>
     <g id="text_9">
      <!-- −1.5 -->
      <defs>
       <path d="M 47 62.203125 
L 47 69.703125 
L 12 69.703125 
L 5.40625 32.90625 
L 12.703125 32.5 
Q 15.203125 35.5 18.453125 37.34375 
Q 21.703125 39.203125 25.90625 39.203125 
Q 29.5 39.203125 32.453125 38 
Q 35.40625 36.796875 37.5 34.640625 
Q 39.59375 32.5 40.75 29.546875 
Q 41.90625 26.59375 41.90625 23.09375 
Q 41.90625 18.90625 40.703125 15.75 
Q 39.5 12.59375 37.453125 10.5 
Q 35.40625 8.40625 32.65625 7.34375 
Q 29.90625 6.296875 26.90625 6.296875 
Q 23.703125 6.296875 21.046875 7.25 
Q 18.40625 8.203125 16.453125 9.953125 
Q 14.5 11.703125 13.34375 14.046875 
Q 12.203125 16.40625 12 19.09375 
L 3.5 19.09375 
Q 3.59375 14.296875 5.390625 10.5 
Q 7.203125 6.703125 10.296875 4.140625 
Q 13.40625 1.59375 17.453125 0.25 
Q 21.5 -1.09375 26.09375 -1.09375 
Q 32.296875 -1.09375 36.9375 0.84375 
Q 41.59375 2.796875 44.6875 6.09375 
Q 47.796875 9.40625 49.34375 13.65625 
Q 50.90625 17.90625 50.90625 22.40625 
Q 50.90625 28.5 49.09375 33.046875 
Q 47.296875 37.59375 44.1875 40.640625 
Q 41.09375 43.703125 36.890625 45.203125 
Q 32.703125 46.703125 28 46.703125 
Q 24.40625 46.703125 20.75 45.453125 
Q 17.09375 44.203125 14.796875 41.59375 
L 14.59375 41.796875 
L 18.40625 62.203125 
z
" id="HelveticaNeue-53"/>
      </defs>
      <g transform="translate(30.201563 252.712158)scale(0.1 -0.1)">
       <use xlink:href="#HelveticaNeue-8722"/>
       <use x="59.999985" xlink:href="#HelveticaNeue-49"/>
       <use x="115.599976" xlink:href="#HelveticaNeue-46"/>
       <use x="143.399963" xlink:href="#HelveticaNeue-53"/>
      </g>
     </g>
    </g>
    <g id="ytick_3">
     <g id="line2d_77">
      <path clip-path="url(#pddb49b7da4)" d="M 57.6 217.817761 
L 414.72 217.817761 
" style="fill:none;stroke:#d3d3d3;stroke-linecap:square;stroke-width:0.8;"/>
     </g>
     <g id="line2d_78">
      <g>
       <use style="stroke:#000000;stroke-width:0.8;" x="57.6" xlink:href="#medf394d2b6" y="217.817761"/>
      </g>
     </g>
     <g id="line2d_79">
      <g>
       <use style="stroke:#000000;stroke-width:0.8;" x="414.72" xlink:href="#medf394d2b6" y="217.817761"/>
      </g>
     </g>
     <g id="text_10">
      <!-- −1.0 -->
      <g transform="translate(30.201563 221.388073)scale(0.1 -0.1)">
       <use xlink:href="#HelveticaNeue-8722"/>
       <use x="59.999985" xlink:href="#HelveticaNeue-49"/>
       <use x="115.599976" xlink:href="#HelveticaNeue-46"/>
       <use x="143.399963" xlink:href="#HelveticaNeue-48"/>
      </g>
     </g>
    </g>
    <g id="ytick_4">
     <g id="line2d_80">
      <path clip-path="url(#pddb49b7da4)" d="M 57.6 186.493676 
L 414.72 186.493676 
" style="fill:none;stroke:#d3d3d3;stroke-linecap:square;stroke-width:0.8;"/>
     </g>
     <g id="line2d_81">
      <g>
       <use style="stroke:#000000;stroke-width:0.8;" x="57.6" xlink:href="#medf394d2b6" y="186.493676"/>
      </g>
     </g>
     <g id="line2d_82">
      <g>
       <use style="stroke:#000000;stroke-width:0.8;" x="414.72" xlink:href="#medf394d2b6" y="186.493676"/>
      </g>
     </g>
     <g id="text_11">
      <!-- −0.5 -->
      <g transform="translate(30.201563 190.063988)scale(0.1 -0.1)">
       <use xlink:href="#HelveticaNeue-8722"/>
       <use x="59.999985" xlink:href="#HelveticaNeue-48"/>
       <use x="115.599976" xlink:href="#HelveticaNeue-46"/>
       <use x="143.399963" xlink:href="#HelveticaNeue-53"/>
      </g>
     </g>
    </g>
    <g id="ytick_5">
     <g id="line2d_83">
      <path clip-path="url(#pddb49b7da4)" d="M 57.6 155.169591 
L 414.72 155.169591 
" style="fill:none;stroke:#d3d3d3;stroke-linecap:square;stroke-width:0.8;"/>
     </g>
     <g id="line2d_84">
      <g>
       <use style="stroke:#000000;stroke-width:0.8;" x="57.6" xlink:href="#medf394d2b6" y="155.169591"/>
      </g>
     </g>
     <g id="line2d_85">
      <g>
       <use style="stroke:#000000;stroke-width:0.8;" x="414.72" xlink:href="#medf394d2b6" y="155.169591"/>
      </g>
     </g>
     <g id="text_12">
      <!-- 0.0 -->
      <g transform="translate(36.201563 158.739903)scale(0.1 -0.1)">
       <use xlink:href="#HelveticaNeue-48"/>
       <use x="55.599991" xlink:href="#HelveticaNeue-46"/>
       <use x="83.399979" xlink:href="#HelveticaNeue-48"/>
      </g>
     </g>
    </g>
    <g id="ytick_6">
     <g id="line2d_86">
      <path clip-path="url(#pddb49b7da4)" d="M 57.6 123.845506 
L 414.72 123.845506 
" style="fill:none;stroke:#d3d3d3;stroke-linecap:square;stroke-width:0.8;"/>
     </g>
     <g id="line2d_87">
      <g>
       <use style="stroke:#000000;stroke-width:0.8;" x="57.6" xlink:href="#medf394d2b6" y="123.845506"/>
      </g>
     </g>
     <g id="line2d_88">
      <g>
       <use style="stroke:#000000;stroke-width:0.8;" x="414.72" xlink:href="#medf394d2b6" y="123.845506"/>
      </g>
     </g>
     <g id="text_13">
      <!-- 0.5 -->
      <g transform="translate(36.201563 127.415818)scale(0.1 -0.1)">
       <use xlink:href="#HelveticaNeue-48"/>
       <use x="55.599991" xlink:href="#HelveticaNeue-46"/>
       <use x="83.399979" xlink:href="#HelveticaNeue-53"/>
      </g>
     </g>
    </g>
    <g id="ytick_7">
     <g id="line2d_89">
      <path clip-path="url(#pddb49b7da4)" d="M 57.6 92.521421 
L 414.72 92.521421 
" style="fill:none;stroke:#d3d3d3;stroke-linecap:square;stroke-width:0.8;"/>
     </g>
     <g id="line2d_90">
      <g>
       <use style="stroke:#000000;stroke-width:0.8;" x="57.6" xlink:href="#medf394d2b6" y="92.521421"/>
      </g>
     </g>
     <g id="line2d_91">
      <g>
       <use style="stroke:#000000;stroke-width:0.8;" x="414.72" xlink:href="#medf394d2b6" y="92.521421"/>
      </g>
     </g>
     <g id="text_14">
      <!-- 1.0 -->
      <g transform="translate(36.201563 96.091733)scale(0.1 -0.1)">
       <use xlink:href="#HelveticaNeue-49"/>
       <use x="55.599991" xlink:href="#HelveticaNeue-46"/>
       <use x="83.399979" xlink:href="#HelveticaNeue-48"/>
      </g>
     </g>
    </g>
    <g id="ytick_8">
     <g id="line2d_92">
      <path clip-path="url(#pddb49b7da4)" d="M 57.6 61.197336 
L 414.72 61.197336 
" style="fill:none;stroke:#d3d3d3;stroke-linecap:square;stroke-width:0.8;"/>
     </g>
     <g id="line2d_93">
      <g>
       <use style="stroke:#000000;stroke-width:0.8;" x="57.6" xlink:href="#medf394d2b6" y="61.197336"/>
      </g>
     </g>
     <g id="line2d_94">
      <g>
       <use style="stroke:#000000;stroke-width:0.8;" x="414.72" xlink:href="#medf394d2b6" y="61.197336"/>
      </g>
     </g>
     <g id="text_15">
      <!-- 1.5 -->
      <g transform="translate(36.201563 64.767648)scale(0.1 -0.1)">
       <use xlink:href="#HelveticaNeue-49"/>
       <use x="55.599991" xlink:href="#HelveticaNeue-46"/>
       <use x="83.399979" xlink:href="#HelveticaNeue-53"/>
      </g>
     </g>
    </g>
    <g id="ytick_9">
     <g id="line2d_95">
      <defs>
       <path d="M 2 0 
L -2 -0 
" id="m89c0ba733a" style="stroke:#000000;stroke-width:0.6;"/>
      </defs>
      <g>
       <use style="stroke:#000000;stroke-width:0.6;" x="57.6" xlink:href="#m89c0ba733a" y="305.525199"/>
      </g>
     </g>
     <g id="line2d_96">
      <g>
       <use style="stroke:#000000;stroke-width:0.6;" x="414.72" xlink:href="#m89c0ba733a" y="305.525199"/>
      </g>
     </g>
    </g>
    <g id="ytick_10">
     <g id="line2d_97">
      <g>
       <use style="stroke:#000000;stroke-width:0.6;" x="57.6" xlink:href="#m89c0ba733a" y="299.260382"/>
      </g>
     </g>
     <g id="line2d_98">
      <g>
       <use style="stroke:#000000;stroke-width:0.6;" x="414.72" xlink:href="#m89c0ba733a" y="299.260382"/>
      </g>
     </g>
    </g>
    <g id="ytick_11">
     <g id="line2d_99">
      <g>
       <use style="stroke:#000000;stroke-width:0.6;" x="57.6" xlink:href="#m89c0ba733a" y="292.995565"/>
      </g>
     </g>
     <g id="line2d_100">
      <g>
       <use style="stroke:#000000;stroke-width:0.6;" x="414.72" xlink:href="#m89c0ba733a" y="292.995565"/>
      </g>
     </g>
    </g>
    <g id="ytick_12">
     <g id="line2d_101">
      <g>
       <use style="stroke:#000000;stroke-width:0.6;" x="57.6" xlink:href="#m89c0ba733a" y="286.730748"/>
      </g>
     </g>
     <g id="line2d_102">
      <g>
       <use style="stroke:#000000;stroke-width:0.6;" x="414.72" xlink:href="#m89c0ba733a" y="286.730748"/>
      </g>
     </g>
    </g>
    <g id="ytick_13">
     <g id="line2d_103">
      <g>
       <use style="stroke:#000000;stroke-width:0.6;" x="57.6" xlink:href="#m89c0ba733a" y="274.201114"/>
      </g>
     </g>
     <g id="line2d_104">
      <g>
       <use style="stroke:#000000;stroke-width:0.6;" x="414.72" xlink:href="#m89c0ba733a" y="274.201114"/>
      </g>
     </g>
    </g>
    <g id="ytick_14">
     <g id="line2d_105">
      <g>
       <use style="stroke:#000000;stroke-width:0.6;" x="57.6" xlink:href="#m89c0ba733a" y="267.936297"/>
      </g>
     </g>
     <g id="line2d_106">
      <g>
       <use style="stroke:#000000;stroke-width:0.6;" x="414.72" xlink:href="#m89c0ba733a" y="267.936297"/>
      </g>
     </g>
    </g>
    <g id="ytick_15">
     <g id="line2d_107">
      <g>
       <use style="stroke:#000000;stroke-width:0.6;" x="57.6" xlink:href="#m89c0ba733a" y="261.67148"/>
      </g>
     </g>
     <g id="line2d_108">
      <g>
       <use style="stroke:#000000;stroke-width:0.6;" x="414.72" xlink:href="#m89c0ba733a" y="261.67148"/>
      </g>
     </g>
    </g>
    <g id="ytick_16">
     <g id="line2d_109">
      <g>
       <use style="stroke:#000000;stroke-width:0.6;" x="57.6" xlink:href="#m89c0ba733a" y="255.406663"/>
      </g>
     </g>
     <g id="line2d_110">
      <g>
       <use style="stroke:#000000;stroke-width:0.6;" x="414.72" xlink:href="#m89c0ba733a" y="255.406663"/>
      </g>
     </g>
    </g>
    <g id="ytick_17">
     <g id="line2d_111">
      <g>
       <use style="stroke:#000000;stroke-width:0.6;" x="57.6" xlink:href="#m89c0ba733a" y="242.877029"/>
      </g>
     </g>
     <g id="line2d_112">
      <g>
       <use style="stroke:#000000;stroke-width:0.6;" x="414.72" xlink:href="#m89c0ba733a" y="242.877029"/>
      </g>
     </g>
    </g>
    <g id="ytick_18">
     <g id="line2d_113">
      <g>
       <use style="stroke:#000000;stroke-width:0.6;" x="57.6" xlink:href="#m89c0ba733a" y="236.612212"/>
      </g>
     </g>
     <g id="line2d_114">
      <g>
       <use style="stroke:#000000;stroke-width:0.6;" x="414.72" xlink:href="#m89c0ba733a" y="236.612212"/>
      </g>
     </g>
    </g>
    <g id="ytick_19">
     <g id="line2d_115">
      <g>
       <use style="stroke:#000000;stroke-width:0.6;" x="57.6" xlink:href="#m89c0ba733a" y="230.347395"/>
      </g>
     </g>
     <g id="line2d_116">
      <g>
       <use style="stroke:#000000;stroke-width:0.6;" x="414.72" xlink:href="#m89c0ba733a" y="230.347395"/>
      </g>
     </g>
    </g>
    <g id="ytick_20">
     <g id="line2d_117">
      <g>
       <use style="stroke:#000000;stroke-width:0.6;" x="57.6" xlink:href="#m89c0ba733a" y="224.082578"/>
      </g>
     </g>
     <g id="line2d_118">
      <g>
       <use style="stroke:#000000;stroke-width:0.6;" x="414.72" xlink:href="#m89c0ba733a" y="224.082578"/>
      </g>
     </g>
    </g>
    <g id="ytick_21">
     <g id="line2d_119">
      <g>
       <use style="stroke:#000000;stroke-width:0.6;" x="57.6" xlink:href="#m89c0ba733a" y="211.552944"/>
      </g>
     </g>
     <g id="line2d_120">
      <g>
       <use style="stroke:#000000;stroke-width:0.6;" x="414.72" xlink:href="#m89c0ba733a" y="211.552944"/>
      </g>
     </g>
    </g>
    <g id="ytick_22">
     <g id="line2d_121">
      <g>
       <use style="stroke:#000000;stroke-width:0.6;" x="57.6" xlink:href="#m89c0ba733a" y="205.288127"/>
      </g>
     </g>
     <g id="line2d_122">
      <g>
       <use style="stroke:#000000;stroke-width:0.6;" x="414.72" xlink:href="#m89c0ba733a" y="205.288127"/>
      </g>
     </g>
    </g>
    <g id="ytick_23">
     <g id="line2d_123">
      <g>
       <use style="stroke:#000000;stroke-width:0.6;" x="57.6" xlink:href="#m89c0ba733a" y="199.02331"/>
      </g>
     </g>
     <g id="line2d_124">
      <g>
       <use style="stroke:#000000;stroke-width:0.6;" x="414.72" xlink:href="#m89c0ba733a" y="199.02331"/>
      </g>
     </g>
    </g>
    <g id="ytick_24">
     <g id="line2d_125">
      <g>
       <use style="stroke:#000000;stroke-width:0.6;" x="57.6" xlink:href="#m89c0ba733a" y="192.758493"/>
      </g>
     </g>
     <g id="line2d_126">
      <g>
       <use style="stroke:#000000;stroke-width:0.6;" x="414.72" xlink:href="#m89c0ba733a" y="192.758493"/>
      </g>
     </g>
    </g>
    <g id="ytick_25">
     <g id="line2d_127">
      <g>
       <use style="stroke:#000000;stroke-width:0.6;" x="57.6" xlink:href="#m89c0ba733a" y="180.228859"/>
      </g>
     </g>
     <g id="line2d_128">
      <g>
       <use style="stroke:#000000;stroke-width:0.6;" x="414.72" xlink:href="#m89c0ba733a" y="180.228859"/>
      </g>
     </g>
    </g>
    <g id="ytick_26">
     <g id="line2d_129">
      <g>
       <use style="stroke:#000000;stroke-width:0.6;" x="57.6" xlink:href="#m89c0ba733a" y="173.964042"/>
      </g>
     </g>
     <g id="line2d_130">
      <g>
       <use style="stroke:#000000;stroke-width:0.6;" x="414.72" xlink:href="#m89c0ba733a" y="173.964042"/>
      </g>
     </g>
    </g>
    <g id="ytick_27">
     <g id="line2d_131">
      <g>
       <use style="stroke:#000000;stroke-width:0.6;" x="57.6" xlink:href="#m89c0ba733a" y="167.699225"/>
      </g>
     </g>
     <g id="line2d_132">
      <g>
       <use style="stroke:#000000;stroke-width:0.6;" x="414.72" xlink:href="#m89c0ba733a" y="167.699225"/>
      </g>
     </g>
    </g>
    <g id="ytick_28">
     <g id="line2d_133">
      <g>
       <use style="stroke:#000000;stroke-width:0.6;" x="57.6" xlink:href="#m89c0ba733a" y="161.434408"/>
      </g>
     </g>
     <g id="line2d_134">
      <g>
       <use style="stroke:#000000;stroke-width:0.6;" x="414.72" xlink:href="#m89c0ba733a" y="161.434408"/>
      </g>
     </g>
    </g>
    <g id="ytick_29">
     <g id="line2d_135">
      <g>
       <use style="stroke:#000000;stroke-width:0.6;" x="57.6" xlink:href="#m89c0ba733a" y="148.904774"/>
      </g>
     </g>
     <g id="line2d_136">
      <g>
       <use style="stroke:#000000;stroke-width:0.6;" x="414.72" xlink:href="#m89c0ba733a" y="148.904774"/>
      </g>
     </g>
    </g>
    <g id="ytick_30">
     <g id="line2d_137">
      <g>
       <use style="stroke:#000000;stroke-width:0.6;" x="57.6" xlink:href="#m89c0ba733a" y="142.639957"/>
      </g>
     </g>
     <g id="line2d_138">
      <g>
       <use style="stroke:#000000;stroke-width:0.6;" x="414.72" xlink:href="#m89c0ba733a" y="142.639957"/>
      </g>
     </g>
    </g>
    <g id="ytick_31">
     <g id="line2d_139">
      <g>
       <use style="stroke:#000000;stroke-width:0.6;" x="57.6" xlink:href="#m89c0ba733a" y="136.37514"/>
      </g>
     </g>
     <g id="line2d_140">
      <g>
       <use style="stroke:#000000;stroke-width:0.6;" x="414.72" xlink:href="#m89c0ba733a" y="136.37514"/>
      </g>
     </g>
    </g>
    <g id="ytick_32">
     <g id="line2d_141">
      <g>
       <use style="stroke:#000000;stroke-width:0.6;" x="57.6" xlink:href="#m89c0ba733a" y="130.110323"/>
      </g>
     </g>
     <g id="line2d_142">
      <g>
       <use style="stroke:#000000;stroke-width:0.6;" x="414.72" xlink:href="#m89c0ba733a" y="130.110323"/>
      </g>
     </g>
    </g>
    <g id="ytick_33">
     <g id="line2d_143">
      <g>
       <use style="stroke:#000000;stroke-width:0.6;" x="57.6" xlink:href="#m89c0ba733a" y="117.580689"/>
      </g>
     </g>
     <g id="line2d_144">
      <g>
       <use style="stroke:#000000;stroke-width:0.6;" x="414.72" xlink:href="#m89c0ba733a" y="117.580689"/>
      </g>
     </g>
    </g>
    <g id="ytick_34">
     <g id="line2d_145">
      <g>
       <use style="stroke:#000000;stroke-width:0.6;" x="57.6" xlink:href="#m89c0ba733a" y="111.315872"/>
      </g>
     </g>
     <g id="line2d_146">
      <g>
       <use style="stroke:#000000;stroke-width:0.6;" x="414.72" xlink:href="#m89c0ba733a" y="111.315872"/>
      </g>
     </g>
    </g>
    <g id="ytick_35">
     <g id="line2d_147">
      <g>
       <use style="stroke:#000000;stroke-width:0.6;" x="57.6" xlink:href="#m89c0ba733a" y="105.051055"/>
      </g>
     </g>
     <g id="line2d_148">
      <g>
       <use style="stroke:#000000;stroke-width:0.6;" x="414.72" xlink:href="#m89c0ba733a" y="105.051055"/>
      </g>
     </g>
    </g>
    <g id="ytick_36">
     <g id="line2d_149">
      <g>
       <use style="stroke:#000000;stroke-width:0.6;" x="57.6" xlink:href="#m89c0ba733a" y="98.786238"/>
      </g>
     </g>
     <g id="line2d_150">
      <g>
       <use style="stroke:#000000;stroke-width:0.6;" x="414.72" xlink:href="#m89c0ba733a" y="98.786238"/>
      </g>
     </g>
    </g>
    <g id="ytick_37">
     <g id="line2d_151">
      <g>
       <use style="stroke:#000000;stroke-width:0.6;" x="57.6" xlink:href="#m89c0ba733a" y="86.256604"/>
      </g>
     </g>
     <g id="line2d_152">
      <g>
       <use style="stroke:#000000;stroke-width:0.6;" x="414.72" xlink:href="#m89c0ba733a" y="86.256604"/>
      </g>
     </g>
    </g>
    <g id="ytick_38">
     <g id="line2d_153">
      <g>
       <use style="stroke:#000000;stroke-width:0.6;" x="57.6" xlink:href="#m89c0ba733a" y="79.991787"/>
      </g>
     </g>
     <g id="line2d_154">
      <g>
       <use style="stroke:#000000;stroke-width:0.6;" x="414.72" xlink:href="#m89c0ba733a" y="79.991787"/>
      </g>
     </g>
    </g>
    <g id="ytick_39">
     <g id="line2d_155">
      <g>
       <use style="stroke:#000000;stroke-width:0.6;" x="57.6" xlink:href="#m89c0ba733a" y="73.72697"/>
      </g>
     </g>
     <g id="line2d_156">
      <g>
       <use style="stroke:#000000;stroke-width:0.6;" x="414.72" xlink:href="#m89c0ba733a" y="73.72697"/>
      </g>
     </g>
    </g>
    <g id="ytick_40">
     <g id="line2d_157">
      <g>
       <use style="stroke:#000000;stroke-width:0.6;" x="57.6" xlink:href="#m89c0ba733a" y="67.462153"/>
      </g>
     </g>
     <g id="line2d_158">
      <g>
       <use style="stroke:#000000;stroke-width:0.6;" x="414.72" xlink:href="#m89c0ba733a" y="67.462153"/>
      </g>
     </g>
    </g>
    <g id="ytick_41">
     <g id="line2d_159">
      <g>
       <use style="stroke:#000000;stroke-width:0.6;" x="57.6" xlink:href="#m89c0ba733a" y="54.932519"/>
      </g>
     </g>
     <g id="line2d_160">
      <g>
       <use style="stroke:#000000;stroke-width:0.6;" x="414.72" xlink:href="#m89c0ba733a" y="54.932519"/>
      </g>
     </g>
    </g>
    <g id="ytick_42">
     <g id="line2d_161">
      <g>
       <use style="stroke:#000000;stroke-width:0.6;" x="57.6" xlink:href="#m89c0ba733a" y="48.667702"/>
      </g>
     </g>
     <g id="line2d_162">
      <g>
       <use style="stroke:#000000;stroke-width:0.6;" x="414.72" xlink:href="#m89c0ba733a" y="48.667702"/>
      </g>
     </g>
    </g>
    <g id="ytick_43">
     <g id="line2d_163">
      <g>
       <use style="stroke:#000000;stroke-width:0.6;" x="57.6" xlink:href="#m89c0ba733a" y="42.402885"/>
      </g>
     </g>
     <g id="line2d_164">
      <g>
       <use style="stroke:#000000;stroke-width:0.6;" x="414.72" xlink:href="#m89c0ba733a" y="42.402885"/>
      </g>
     </g>
    </g>
    <g id="text_16">
     <!-- y -->
     <defs>
      <path d="M 26.703125 -6.90625 
Q 25.203125 -10.703125 23.75 -13.296875 
Q 22.296875 -15.90625 20.546875 -17.546875 
Q 18.796875 -19.203125 16.640625 -19.953125 
Q 14.5 -20.703125 11.703125 -20.703125 
Q 10.203125 -20.703125 8.703125 -20.5 
Q 7.203125 -20.296875 5.796875 -19.796875 
L 5.796875 -12 
Q 6.90625 -12.5 8.34375 -12.84375 
Q 9.796875 -13.203125 10.796875 -13.203125 
Q 13.40625 -13.203125 15.15625 -11.953125 
Q 16.90625 -10.703125 17.796875 -8.40625 
L 21.296875 0.296875 
L 0.796875 51.703125 
L 10.40625 51.703125 
L 25.5 9.40625 
L 25.703125 9.40625 
L 40.203125 51.703125 
L 49.203125 51.703125 
z
" id="HelveticaNeue-121"/>
     </defs>
     <g transform="translate(23.717188 177.528)rotate(-90)scale(0.12 -0.12)">
      <use xlink:href="#HelveticaNeue-121"/>
     </g>
    </g>
   </g>
   <g id="line2d_165">
    <defs>
     <path d="M 0 3 
C 0.795609 3 1.55874 2.683901 2.12132 2.12132 
C 2.683901 1.55874 3 0.795609 3 0 
C 3 -0.795609 2.683901 -1.55874 2.12132 -2.12132 
C 1.55874 -2.683901 0.795609 -3 0 -3 
C -0.795609 -3 -1.55874 -2.683901 -2.12132 -2.12132 
C -2.683901 -1.55874 -3 -0.795609 -3 0 
C -3 0.795609 -2.683901 1.55874 -2.12132 2.12132 
C -1.55874 2.683901 -0.795609 3 0 3 
z
" id="m9aa25e927e" style="stroke:#1f77b4;"/>
    </defs>
    <g clip-path="url(#pddb49b7da4)">
     <use style="fill:#1f77b4;stroke:#1f77b4;" x="306.488732" xlink:href="#m9aa25e927e" y="184.843174"/>
     <use style="fill:#1f77b4;stroke:#1f77b4;" x="302.550894" xlink:href="#m9aa25e927e" y="117.37743"/>
     <use style="fill:#1f77b4;stroke:#1f77b4;" x="283.013949" xlink:href="#m9aa25e927e" y="53.568"/>
     <use style="fill:#1f77b4;stroke:#1f77b4;" x="241.290767" xlink:href="#m9aa25e927e" y="181.068394"/>
     <use style="fill:#1f77b4;stroke:#1f77b4;" x="295.253904" xlink:href="#m9aa25e927e" y="130.895141"/>
     <use style="fill:#1f77b4;stroke:#1f77b4;" x="233.660872" xlink:href="#m9aa25e927e" y="160.66903"/>
     <use style="fill:#1f77b4;stroke:#1f77b4;" x="173.109115" xlink:href="#m9aa25e927e" y="229.444596"/>
     <use style="fill:#1f77b4;stroke:#1f77b4;" x="299.390506" xlink:href="#m9aa25e927e" y="119.04078"/>
     <use style="fill:#1f77b4;stroke:#1f77b4;" x="229.364662" xlink:href="#m9aa25e927e" y="230.205417"/>
     <use style="fill:#1f77b4;stroke:#1f77b4;" x="215.893618" xlink:href="#m9aa25e927e" y="213.264302"/>
     <use style="fill:#1f77b4;stroke:#1f77b4;" x="214.891254" xlink:href="#m9aa25e927e" y="145.782495"/>
     <use style="fill:#1f77b4;stroke:#1f77b4;" x="317.727807" xlink:href="#m9aa25e927e" y="176.408752"/>
     <use style="fill:#1f77b4;stroke:#1f77b4;" x="248.268514" xlink:href="#m9aa25e927e" y="184.129405"/>
     <use style="fill:#1f77b4;stroke:#1f77b4;" x="249.186916" xlink:href="#m9aa25e927e" y="182.44177"/>
     <use style="fill:#1f77b4;stroke:#1f77b4;" x="358.931893" xlink:href="#m9aa25e927e" y="64.307439"/>
     <use style="fill:#1f77b4;stroke:#1f77b4;" x="303.576003" xlink:href="#m9aa25e927e" y="62.539044"/>
     <use style="fill:#1f77b4;stroke:#1f77b4;" x="165.686312" xlink:href="#m9aa25e927e" y="136.466902"/>
     <use style="fill:#1f77b4;stroke:#1f77b4;" x="303.286553" xlink:href="#m9aa25e927e" y="145.308691"/>
     <use style="fill:#1f77b4;stroke:#1f77b4;" x="311.76656" xlink:href="#m9aa25e927e" y="95.876042"/>
     <use style="fill:#1f77b4;stroke:#1f77b4;" x="260.623244" xlink:href="#m9aa25e927e" y="258.62428"/>
     <use style="fill:#1f77b4;stroke:#1f77b4;" x="188.455177" xlink:href="#m9aa25e927e" y="82.797294"/>
     <use style="fill:#1f77b4;stroke:#1f77b4;" x="317.426486" xlink:href="#m9aa25e927e" y="62.342327"/>
     <use style="fill:#1f77b4;stroke:#1f77b4;" x="202.561456" xlink:href="#m9aa25e927e" y="148.757711"/>
     <use style="fill:#1f77b4;stroke:#1f77b4;" x="264.927578" xlink:href="#m9aa25e927e" y="165.856794"/>
     <use style="fill:#1f77b4;stroke:#1f77b4;" x="368.766346" xlink:href="#m9aa25e927e" y="96.305483"/>
     <use style="fill:#1f77b4;stroke:#1f77b4;" x="244.655234" xlink:href="#m9aa25e927e" y="187.654797"/>
     <use style="fill:#1f77b4;stroke:#1f77b4;" x="298.473457" xlink:href="#m9aa25e927e" y="130.563833"/>
     <use style="fill:#1f77b4;stroke:#1f77b4;" x="213.443186" xlink:href="#m9aa25e927e" y="196.120357"/>
     <use style="fill:#1f77b4;stroke:#1f77b4;" x="297.600818" xlink:href="#m9aa25e927e" y="114.022336"/>
     <use style="fill:#1f77b4;stroke:#1f77b4;" x="233.377887" xlink:href="#m9aa25e927e" y="108.098186"/>
     <use style="fill:#1f77b4;stroke:#1f77b4;" x="207.148895" xlink:href="#m9aa25e927e" y="181.787733"/>
     <use style="fill:#1f77b4;stroke:#1f77b4;" x="212.380609" xlink:href="#m9aa25e927e" y="188.030277"/>
     <use style="fill:#1f77b4;stroke:#1f77b4;" x="254.593272" xlink:href="#m9aa25e927e" y="217.582825"/>
     <use style="fill:#1f77b4;stroke:#1f77b4;" x="257.371123" xlink:href="#m9aa25e927e" y="188.224752"/>
     <use style="fill:#1f77b4;stroke:#1f77b4;" x="226.367369" xlink:href="#m9aa25e927e" y="170.987021"/>
     <use style="fill:#1f77b4;stroke:#1f77b4;" x="73.832727" xlink:href="#m9aa25e927e" y="167.606948"/>
     <use style="fill:#1f77b4;stroke:#1f77b4;" x="260.757361" xlink:href="#m9aa25e927e" y="155.742588"/>
     <use style="fill:#1f77b4;stroke:#1f77b4;" x="156.6647" xlink:href="#m9aa25e927e" y="268.680151"/>
     <use style="fill:#1f77b4;stroke:#1f77b4;" x="310.444174" xlink:href="#m9aa25e927e" y="152.978356"/>
     <use style="fill:#1f77b4;stroke:#1f77b4;" x="243.88795" xlink:href="#m9aa25e927e" y="184.820629"/>
     <use style="fill:#1f77b4;stroke:#1f77b4;" x="280.723432" xlink:href="#m9aa25e927e" y="246.993641"/>
     <use style="fill:#1f77b4;stroke:#1f77b4;" x="349.721606" xlink:href="#m9aa25e927e" y="175.324491"/>
     <use style="fill:#1f77b4;stroke:#1f77b4;" x="245.769219" xlink:href="#m9aa25e927e" y="203.16807"/>
     <use style="fill:#1f77b4;stroke:#1f77b4;" x="395.984635" xlink:href="#m9aa25e927e" y="119.40496"/>
     <use style="fill:#1f77b4;stroke:#1f77b4;" x="216.667643" xlink:href="#m9aa25e927e" y="155.308979"/>
     <use style="fill:#1f77b4;stroke:#1f77b4;" x="298.592868" xlink:href="#m9aa25e927e" y="217.232919"/>
     <use style="fill:#1f77b4;stroke:#1f77b4;" x="219.881862" xlink:href="#m9aa25e927e" y="115.178918"/>
     <use style="fill:#1f77b4;stroke:#1f77b4;" x="271.800954" xlink:href="#m9aa25e927e" y="255.748919"/>
     <use style="fill:#1f77b4;stroke:#1f77b4;" x="269.373481" xlink:href="#m9aa25e927e" y="133.239762"/>
     <use style="fill:#1f77b4;stroke:#1f77b4;" x="270.49679" xlink:href="#m9aa25e927e" y="135.826808"/>
     <use style="fill:#1f77b4;stroke:#1f77b4;" x="320.103054" xlink:href="#m9aa25e927e" y="78.043288"/>
     <use style="fill:#1f77b4;stroke:#1f77b4;" x="327.276277" xlink:href="#m9aa25e927e" y="183.961525"/>
     <use style="fill:#1f77b4;stroke:#1f77b4;" x="247.4217" xlink:href="#m9aa25e927e" y="162.215507"/>
     <use style="fill:#1f77b4;stroke:#1f77b4;" x="241.367184" xlink:href="#m9aa25e927e" y="214.393013"/>
     <use style="fill:#1f77b4;stroke:#1f77b4;" x="252.948377" xlink:href="#m9aa25e927e" y="180.552953"/>
     <use style="fill:#1f77b4;stroke:#1f77b4;" x="218.859893" xlink:href="#m9aa25e927e" y="230.5427"/>
     <use style="fill:#1f77b4;stroke:#1f77b4;" x="398.487273" xlink:href="#m9aa25e927e" y="105.260842"/>
     <use style="fill:#1f77b4;stroke:#1f77b4;" x="351.766463" xlink:href="#m9aa25e927e" y="122.845854"/>
     <use style="fill:#1f77b4;stroke:#1f77b4;" x="332.044767" xlink:href="#m9aa25e927e" y="161.309086"/>
     <use style="fill:#1f77b4;stroke:#1f77b4;" x="254.963335" xlink:href="#m9aa25e927e" y="185.994334"/>
     <use style="fill:#1f77b4;stroke:#1f77b4;" x="314.501242" xlink:href="#m9aa25e927e" y="83.697616"/>
     <use style="fill:#1f77b4;stroke:#1f77b4;" x="130.150022" xlink:href="#m9aa25e927e" y="164.121649"/>
     <use style="fill:#1f77b4;stroke:#1f77b4;" x="342.666115" xlink:href="#m9aa25e927e" y="100.948776"/>
     <use style="fill:#1f77b4;stroke:#1f77b4;" x="361.942094" xlink:href="#m9aa25e927e" y="129.438181"/>
     <use style="fill:#1f77b4;stroke:#1f77b4;" x="319.079444" xlink:href="#m9aa25e927e" y="129.213307"/>
     <use style="fill:#1f77b4;stroke:#1f77b4;" x="285.13837" xlink:href="#m9aa25e927e" y="189.576055"/>
     <use style="fill:#1f77b4;stroke:#1f77b4;" x="106.113328" xlink:href="#m9aa25e927e" y="246.993562"/>
     <use style="fill:#1f77b4;stroke:#1f77b4;" x="279.374772" xlink:href="#m9aa25e927e" y="203.623887"/>
     <use style="fill:#1f77b4;stroke:#1f77b4;" x="205.53772" xlink:href="#m9aa25e927e" y="58.041773"/>
     <use style="fill:#1f77b4;stroke:#1f77b4;" x="334.587028" xlink:href="#m9aa25e927e" y="140.071222"/>
     <use style="fill:#1f77b4;stroke:#1f77b4;" x="188.407671" xlink:href="#m9aa25e927e" y="249.690626"/>
     <use style="fill:#1f77b4;stroke:#1f77b4;" x="289.68444" xlink:href="#m9aa25e927e" y="127.982521"/>
     <use style="fill:#1f77b4;stroke:#1f77b4;" x="251.027543" xlink:href="#m9aa25e927e" y="145.887074"/>
     <use style="fill:#1f77b4;stroke:#1f77b4;" x="271.459133" xlink:href="#m9aa25e927e" y="198.133671"/>
     <use style="fill:#1f77b4;stroke:#1f77b4;" x="339.99749" xlink:href="#m9aa25e927e" y="55.085585"/>
     <use style="fill:#1f77b4;stroke:#1f77b4;" x="311.009618" xlink:href="#m9aa25e927e" y="150.382015"/>
     <use style="fill:#1f77b4;stroke:#1f77b4;" x="280.674443" xlink:href="#m9aa25e927e" y="120.050565"/>
     <use style="fill:#1f77b4;stroke:#1f77b4;" x="338.992227" xlink:href="#m9aa25e927e" y="196.890013"/>
     <use style="fill:#1f77b4;stroke:#1f77b4;" x="307.238359" xlink:href="#m9aa25e927e" y="169.600221"/>
     <use style="fill:#1f77b4;stroke:#1f77b4;" x="251.360667" xlink:href="#m9aa25e927e" y="115.480321"/>
     <use style="fill:#1f77b4;stroke:#1f77b4;" x="225.14503" xlink:href="#m9aa25e927e" y="190.225465"/>
     <use style="fill:#1f77b4;stroke:#1f77b4;" x="172.443794" xlink:href="#m9aa25e927e" y="212.649319"/>
     <use style="fill:#1f77b4;stroke:#1f77b4;" x="297.522789" xlink:href="#m9aa25e927e" y="96.101203"/>
     <use style="fill:#1f77b4;stroke:#1f77b4;" x="309.742692" xlink:href="#m9aa25e927e" y="166.775654"/>
     <use style="fill:#1f77b4;stroke:#1f77b4;" x="311.497122" xlink:href="#m9aa25e927e" y="181.11256"/>
     <use style="fill:#1f77b4;stroke:#1f77b4;" x="236.437325" xlink:href="#m9aa25e927e" y="157.934941"/>
     <use style="fill:#1f77b4;stroke:#1f77b4;" x="217.745432" xlink:href="#m9aa25e927e" y="73.674655"/>
     <use style="fill:#1f77b4;stroke:#1f77b4;" x="307.162886" xlink:href="#m9aa25e927e" y="146.025251"/>
     <use style="fill:#1f77b4;stroke:#1f77b4;" x="245.650669" xlink:href="#m9aa25e927e" y="230.34905"/>
     <use style="fill:#1f77b4;stroke:#1f77b4;" x="208.189735" xlink:href="#m9aa25e927e" y="117.092756"/>
     <use style="fill:#1f77b4;stroke:#1f77b4;" x="317.6367" xlink:href="#m9aa25e927e" y="200.992271"/>
     <use style="fill:#1f77b4;stroke:#1f77b4;" x="248.788643" xlink:href="#m9aa25e927e" y="221.051921"/>
     <use style="fill:#1f77b4;stroke:#1f77b4;" x="352.626588" xlink:href="#m9aa25e927e" y="147.846059"/>
     <use style="fill:#1f77b4;stroke:#1f77b4;" x="265.647467" xlink:href="#m9aa25e927e" y="202.947784"/>
     <use style="fill:#1f77b4;stroke:#1f77b4;" x="200.601873" xlink:href="#m9aa25e927e" y="141.692357"/>
     <use style="fill:#1f77b4;stroke:#1f77b4;" x="244.769429" xlink:href="#m9aa25e927e" y="120.035911"/>
     <use style="fill:#1f77b4;stroke:#1f77b4;" x="342.895375" xlink:href="#m9aa25e927e" y="130.689346"/>
     <use style="fill:#1f77b4;stroke:#1f77b4;" x="244.800022" xlink:href="#m9aa25e927e" y="233.366537"/>
     <use style="fill:#1f77b4;stroke:#1f77b4;" x="299.869249" xlink:href="#m9aa25e927e" y="156.062046"/>
     <use style="fill:#1f77b4;stroke:#1f77b4;" x="265.774678" xlink:href="#m9aa25e927e" y="295.488"/>
    </g>
   </g>
   <g id="patch_3">
    <path d="M 57.6 307.584 
L 57.6 41.472 
" style="fill:none;stroke:#000000;stroke-linecap:square;stroke-linejoin:miter;"/>
   </g>
   <g id="patch_4">
    <path d="M 414.72 307.584 
L 414.72 41.472 
" style="fill:none;stroke:#000000;stroke-linecap:square;stroke-linejoin:miter;"/>
   </g>
   <g id="patch_5">
    <path d="M 57.6 307.584 
L 414.72 307.584 
" style="fill:none;stroke:#000000;stroke-linecap:square;stroke-linejoin:miter;"/>
   </g>
   <g id="patch_6">
    <path d="M 57.6 41.472 
L 414.72 41.472 
" style="fill:none;stroke:#000000;stroke-linecap:square;stroke-linejoin:miter;"/>
   </g>
   <g id="text_17">
    <!-- R = 0.3629524643648284 -->
    <defs>
     <path d="M 7.796875 71.40625 
L 7.796875 0 
L 17.296875 0 
L 17.296875 30.5 
L 40.5 30.5 
Q 44 30.5 46.09375 29.453125 
Q 48.203125 28.40625 49.5 26.65625 
Q 50.796875 24.90625 51.390625 22.546875 
Q 52 20.203125 52.40625 17.59375 
Q 52.90625 15 53 12.296875 
Q 53.09375 9.59375 53.1875 7.25 
Q 53.296875 4.90625 53.640625 3 
Q 54 1.09375 55 0 
L 65.59375 0 
Q 64.09375 1.796875 63.34375 4.140625 
Q 62.59375 6.5 62.1875 9.09375 
Q 61.796875 11.703125 61.6875 14.390625 
Q 61.59375 17.09375 61.40625 19.703125 
Q 61.09375 22.296875 60.546875 24.6875 
Q 60 27.09375 58.84375 29.046875 
Q 57.703125 31 55.75 32.390625 
Q 53.796875 33.796875 50.703125 34.40625 
L 50.703125 34.59375 
Q 57.203125 36.40625 60.140625 41.296875 
Q 63.09375 46.203125 63.09375 52.703125 
Q 63.09375 61.40625 57.34375 66.40625 
Q 51.59375 71.40625 41.40625 71.40625 
z
M 37.09375 38.5 
L 17.296875 38.5 
L 17.296875 63.40625 
L 40.90625 63.40625 
Q 47.59375 63.40625 50.59375 60 
Q 53.59375 56.59375 53.59375 51.203125 
Q 53.59375 47.296875 52.25 44.84375 
Q 50.90625 42.40625 48.65625 40.953125 
Q 46.40625 39.5 43.40625 39 
Q 40.40625 38.5 37.09375 38.5 
z
" id="HelveticaNeue-82"/>
     <path id="HelveticaNeue-32"/>
     <path d="M 4.796875 18.59375 
L 4.796875 11.796875 
L 55.203125 11.796875 
L 55.203125 18.59375 
z
M 55.203125 32 
L 55.203125 38.796875 
L 4.796875 38.796875 
L 4.796875 32 
z
" id="HelveticaNeue-61"/>
     <path d="M 41.40625 52.796875 
L 49.90625 52.796875 
Q 49.09375 61.59375 43.890625 66.25 
Q 38.703125 70.90625 29.90625 70.90625 
Q 22.296875 70.90625 17.296875 67.703125 
Q 12.296875 64.5 9.296875 59.203125 
Q 6.296875 53.90625 5.046875 47.046875 
Q 3.796875 40.203125 3.796875 32.90625 
Q 3.796875 27.296875 4.640625 21.296875 
Q 5.5 15.296875 8.09375 10.296875 
Q 10.703125 5.296875 15.5 2.09375 
Q 20.296875 -1.09375 28.203125 -1.09375 
Q 34.90625 -1.09375 39.453125 1.15625 
Q 44 3.40625 46.75 6.84375 
Q 49.5 10.296875 50.703125 14.5 
Q 51.90625 18.703125 51.90625 22.59375 
Q 51.90625 27.5 50.40625 31.703125 
Q 48.90625 35.90625 46.15625 39 
Q 43.40625 42.09375 39.34375 43.84375 
Q 35.296875 45.59375 30.203125 45.59375 
Q 24.40625 45.59375 19.953125 43.390625 
Q 15.5 41.203125 12.5 36.296875 
L 12.296875 36.5 
Q 12.40625 40.59375 13.09375 45.296875 
Q 13.796875 50 15.640625 54.046875 
Q 17.5 58.09375 20.796875 60.75 
Q 24.09375 63.40625 29.5 63.40625 
Q 34.59375 63.40625 37.6875 60.5 
Q 40.796875 57.59375 41.40625 52.796875 
z
M 28.59375 38.09375 
Q 32.203125 38.09375 34.890625 36.796875 
Q 37.59375 35.5 39.390625 33.34375 
Q 41.203125 31.203125 42.046875 28.25 
Q 42.90625 25.296875 42.90625 22 
Q 42.90625 18.90625 41.953125 16.046875 
Q 41 13.203125 39.203125 11 
Q 37.40625 8.796875 34.75 7.546875 
Q 32.09375 6.296875 28.59375 6.296875 
Q 25.09375 6.296875 22.34375 7.546875 
Q 19.59375 8.796875 17.75 10.890625 
Q 15.90625 13 14.90625 15.890625 
Q 13.90625 18.796875 13.90625 22.09375 
Q 13.90625 25.40625 14.84375 28.34375 
Q 15.796875 31.296875 17.6875 33.4375 
Q 19.59375 35.59375 22.296875 36.84375 
Q 25 38.09375 28.59375 38.09375 
z
" id="HelveticaNeue-54"/>
     <path d="M 13.40625 17.09375 
L 4.90625 17.09375 
Q 5.703125 7.90625 11.59375 3.40625 
Q 17.5 -1.09375 26.40625 -1.09375 
Q 39.296875 -1.09375 45.140625 8.75 
Q 51 18.59375 51 37 
Q 51 47.09375 49.046875 53.640625 
Q 47.09375 60.203125 43.796875 64 
Q 40.5 67.796875 36.09375 69.34375 
Q 31.703125 70.90625 26.703125 70.90625 
Q 21.59375 70.90625 17.296875 69.203125 
Q 13 67.5 9.890625 64.453125 
Q 6.796875 61.40625 5.09375 57.15625 
Q 3.40625 52.90625 3.40625 47.796875 
Q 3.40625 42.59375 4.84375 38.1875 
Q 6.296875 33.796875 9.140625 30.6875 
Q 12 27.59375 16.203125 25.84375 
Q 20.40625 24.09375 25.796875 24.09375 
Q 31 24.09375 35.390625 26.75 
Q 39.796875 29.40625 42.203125 33.90625 
L 42.40625 33.703125 
Q 42 19.796875 38.09375 13.046875 
Q 34.203125 6.296875 26.40625 6.296875 
Q 21.296875 6.296875 17.59375 9.09375 
Q 13.90625 11.90625 13.40625 17.09375 
z
M 40.90625 47.203125 
Q 40.90625 44.09375 39.90625 41.25 
Q 38.90625 38.40625 37 36.25 
Q 35.09375 34.09375 32.390625 32.84375 
Q 29.703125 31.59375 26.40625 31.59375 
Q 23.296875 31.59375 20.75 32.84375 
Q 18.203125 34.09375 16.34375 36.1875 
Q 14.5 38.296875 13.453125 41 
Q 12.40625 43.703125 12.40625 46.59375 
Q 12.40625 49.90625 13.15625 52.90625 
Q 13.90625 55.90625 15.546875 58.25 
Q 17.203125 60.59375 19.84375 62 
Q 22.5 63.40625 26.296875 63.40625 
Q 29.90625 63.40625 32.59375 62.09375 
Q 35.296875 60.796875 37.140625 58.546875 
Q 39 56.296875 39.953125 53.390625 
Q 40.90625 50.5 40.90625 47.203125 
z
" id="HelveticaNeue-57"/>
     <path d="M 33.90625 24.09375 
L 10.09375 24.09375 
L 33.703125 58.796875 
L 33.90625 58.796875 
z
M 41.90625 24.09375 
L 41.90625 70.90625 
L 35.09375 70.90625 
L 2.796875 24.796875 
L 2.796875 16.59375 
L 33.90625 16.59375 
L 33.90625 0 
L 41.90625 0 
L 41.90625 16.59375 
L 51.5 16.59375 
L 51.5 24.09375 
z
" id="HelveticaNeue-52"/>
     <path d="M 15.5 52.5 
Q 15.5 55.203125 16.5 57.203125 
Q 17.5 59.203125 19.140625 60.59375 
Q 20.796875 62 23.09375 62.703125 
Q 25.40625 63.40625 27.90625 63.40625 
Q 33.09375 63.40625 36.4375 60.65625 
Q 39.796875 57.90625 39.796875 52.5 
Q 39.796875 47.09375 36.5 44.09375 
Q 33.203125 41.09375 28.09375 41.09375 
Q 25.5 41.09375 23.203125 41.796875 
Q 20.90625 42.5 19.203125 43.890625 
Q 17.5 45.296875 16.5 47.4375 
Q 15.5 49.59375 15.5 52.5 
z
M 6.5 52.796875 
Q 6.5 48 9.203125 43.953125 
Q 11.90625 39.90625 16.40625 38.09375 
Q 10.40625 36 7.203125 31.34375 
Q 4 26.703125 4 20.40625 
Q 4 15 5.84375 10.953125 
Q 7.703125 6.90625 10.953125 4.203125 
Q 14.203125 1.5 18.59375 0.203125 
Q 23 -1.09375 28.09375 -1.09375 
Q 33 -1.09375 37.296875 0.296875 
Q 41.59375 1.703125 44.75 4.453125 
Q 47.90625 7.203125 49.75 11.203125 
Q 51.59375 15.203125 51.59375 20.40625 
Q 51.59375 27 48.5 31.546875 
Q 45.40625 36.09375 39 38.09375 
Q 43.5 40.09375 46.140625 44.046875 
Q 48.796875 48 48.796875 52.796875 
Q 48.796875 56.203125 47.59375 59.453125 
Q 46.40625 62.703125 43.84375 65.25 
Q 41.296875 67.796875 37.1875 69.34375 
Q 33.09375 70.90625 27.296875 70.90625 
Q 23.203125 70.90625 19.453125 69.703125 
Q 15.703125 68.5 12.796875 66.203125 
Q 9.90625 63.90625 8.203125 60.546875 
Q 6.5 57.203125 6.5 52.796875 
z
M 13 20 
Q 13 23.09375 14.140625 25.59375 
Q 15.296875 28.09375 17.34375 29.890625 
Q 19.40625 31.703125 22.15625 32.640625 
Q 24.90625 33.59375 28 33.59375 
Q 31 33.59375 33.640625 32.546875 
Q 36.296875 31.5 38.296875 29.703125 
Q 40.296875 27.90625 41.4375 25.453125 
Q 42.59375 23 42.59375 20.09375 
Q 42.59375 17.09375 41.546875 14.59375 
Q 40.5 12.09375 38.546875 10.25 
Q 36.59375 8.40625 33.9375 7.34375 
Q 31.296875 6.296875 28.09375 6.296875 
Q 21.5 6.296875 17.25 9.9375 
Q 13 13.59375 13 20 
z
" id="HelveticaNeue-56"/>
    </defs>
    <g transform="translate(66.528 55.265425)scale(0.1 -0.1)">
     <use xlink:href="#HelveticaNeue-82"/>
     <use x="68.499985" xlink:href="#HelveticaNeue-32"/>
     <use x="96.299973" xlink:href="#HelveticaNeue-61"/>
     <use x="156.299957" xlink:href="#HelveticaNeue-32"/>
     <use x="184.099945" xlink:href="#HelveticaNeue-48"/>
     <use x="239.699936" xlink:href="#HelveticaNeue-46"/>
     <use x="267.499924" xlink:href="#HelveticaNeue-51"/>
     <use x="323.099915" xlink:href="#HelveticaNeue-54"/>
     <use x="378.699905" xlink:href="#HelveticaNeue-50"/>
     <use x="434.299896" xlink:href="#HelveticaNeue-57"/>
     <use x="489.899887" xlink:href="#HelveticaNeue-53"/>
     <use x="545.499878" xlink:href="#HelveticaNeue-50"/>
     <use x="601.099869" xlink:href="#HelveticaNeue-52"/>
     <use x="656.69986" xlink:href="#HelveticaNeue-54"/>
     <use x="712.29985" xlink:href="#HelveticaNeue-52"/>
     <use x="767.899841" xlink:href="#HelveticaNeue-51"/>
     <use x="823.499832" xlink:href="#HelveticaNeue-54"/>
     <use x="879.099823" xlink:href="#HelveticaNeue-52"/>
     <use x="934.699814" xlink:href="#HelveticaNeue-56"/>
     <use x="990.299805" xlink:href="#HelveticaNeue-50"/>
     <use x="1045.899796" xlink:href="#HelveticaNeue-56"/>
     <use x="1101.499786" xlink:href="#HelveticaNeue-52"/>
    </g>
   </g>
   <g id="text_18">
    <!-- Modelled covarying data set. -->
    <defs>
     <path d="M 8 71.40625 
L 8 0 
L 17 0 
L 17 59.40625 
L 17.203125 59.40625 
L 39.5 0 
L 47.59375 0 
L 69.90625 59.40625 
L 70.09375 59.40625 
L 70.09375 0 
L 79.09375 0 
L 79.09375 71.40625 
L 66.09375 71.40625 
L 43.5 11.40625 
L 21 71.40625 
z
" id="HelveticaNeue-77"/>
     <path d="M 12.59375 25.796875 
Q 12.59375 30.5 13.84375 34.140625 
Q 15.09375 37.796875 17.296875 40.296875 
Q 19.5 42.796875 22.453125 44.09375 
Q 25.40625 45.40625 28.703125 45.40625 
Q 32 45.40625 34.953125 44.09375 
Q 37.90625 42.796875 40.09375 40.296875 
Q 42.296875 37.796875 43.546875 34.140625 
Q 44.796875 30.5 44.796875 25.796875 
Q 44.796875 21.09375 43.546875 17.4375 
Q 42.296875 13.796875 40.09375 11.34375 
Q 37.90625 8.90625 34.953125 7.59375 
Q 32 6.296875 28.703125 6.296875 
Q 25.40625 6.296875 22.453125 7.59375 
Q 19.5 8.90625 17.296875 11.34375 
Q 15.09375 13.796875 13.84375 17.4375 
Q 12.59375 21.09375 12.59375 25.796875 
z
M 3.59375 25.796875 
Q 3.59375 20.09375 5.1875 15.1875 
Q 6.796875 10.296875 10 6.640625 
Q 13.203125 3 17.890625 0.953125 
Q 22.59375 -1.09375 28.703125 -1.09375 
Q 34.90625 -1.09375 39.546875 0.953125 
Q 44.203125 3 47.390625 6.640625 
Q 50.59375 10.296875 52.1875 15.1875 
Q 53.796875 20.09375 53.796875 25.796875 
Q 53.796875 31.5 52.1875 36.453125 
Q 50.59375 41.40625 47.390625 45.046875 
Q 44.203125 48.703125 39.546875 50.796875 
Q 34.90625 52.90625 28.703125 52.90625 
Q 22.59375 52.90625 17.890625 50.796875 
Q 13.203125 48.703125 10 45.046875 
Q 6.796875 41.40625 5.1875 36.453125 
Q 3.59375 31.5 3.59375 25.796875 
z
" id="HelveticaNeue-111"/>
     <path d="M 12.59375 25.40625 
Q 12.59375 29.203125 13.390625 32.796875 
Q 14.203125 36.40625 16 39.203125 
Q 17.796875 42 20.796875 43.703125 
Q 23.796875 45.40625 28.09375 45.40625 
Q 32.5 45.40625 35.59375 43.75 
Q 38.703125 42.09375 40.640625 39.390625 
Q 42.59375 36.703125 43.5 33.140625 
Q 44.40625 29.59375 44.40625 25.796875 
Q 44.40625 22.203125 43.546875 18.703125 
Q 42.703125 15.203125 40.796875 12.453125 
Q 38.90625 9.703125 35.90625 8 
Q 32.90625 6.296875 28.59375 6.296875 
Q 24.5 6.296875 21.453125 7.890625 
Q 18.40625 9.5 16.453125 12.203125 
Q 14.5 14.90625 13.546875 18.34375 
Q 12.59375 21.796875 12.59375 25.40625 
z
M 52.59375 0 
L 52.59375 71.40625 
L 44.09375 71.40625 
L 44.09375 44.796875 
L 43.90625 44.796875 
Q 42.5 47.09375 40.453125 48.640625 
Q 38.40625 50.203125 36.09375 51.140625 
Q 33.796875 52.09375 31.5 52.5 
Q 29.203125 52.90625 27.203125 52.90625 
Q 21.296875 52.90625 16.84375 50.75 
Q 12.40625 48.59375 9.453125 44.9375 
Q 6.5 41.296875 5.046875 36.390625 
Q 3.59375 31.5 3.59375 26 
Q 3.59375 20.5 5.09375 15.59375 
Q 6.59375 10.703125 9.546875 7 
Q 12.5 3.296875 16.953125 1.09375 
Q 21.40625 -1.09375 27.40625 -1.09375 
Q 32.796875 -1.09375 37.296875 0.796875 
Q 41.796875 2.703125 43.90625 7 
L 44.09375 7 
L 44.09375 0 
z
" id="HelveticaNeue-100"/>
     <path d="M 42.296875 30.796875 
L 12.59375 30.796875 
Q 12.796875 33.796875 13.890625 36.4375 
Q 15 39.09375 16.890625 41.09375 
Q 18.796875 43.09375 21.4375 44.25 
Q 24.09375 45.40625 27.40625 45.40625 
Q 30.59375 45.40625 33.25 44.25 
Q 35.90625 43.09375 37.84375 41.140625 
Q 39.796875 39.203125 40.9375 36.5 
Q 42.09375 33.796875 42.296875 30.796875 
z
M 50.5 16.40625 
L 42.09375 16.40625 
Q 41 11.296875 37.546875 8.796875 
Q 34.09375 6.296875 28.703125 6.296875 
Q 24.5 6.296875 21.390625 7.6875 
Q 18.296875 9.09375 16.296875 11.4375 
Q 14.296875 13.796875 13.390625 16.84375 
Q 12.5 19.90625 12.59375 23.296875 
L 51.296875 23.296875 
Q 51.5 28 50.453125 33.203125 
Q 49.40625 38.40625 46.65625 42.796875 
Q 43.90625 47.203125 39.34375 50.046875 
Q 34.796875 52.90625 27.90625 52.90625 
Q 22.59375 52.90625 18.140625 50.90625 
Q 13.703125 48.90625 10.453125 45.296875 
Q 7.203125 41.703125 5.390625 36.796875 
Q 3.59375 31.90625 3.59375 26 
Q 3.796875 20.09375 5.34375 15.09375 
Q 6.90625 10.09375 10 6.5 
Q 13.09375 2.90625 17.640625 0.90625 
Q 22.203125 -1.09375 28.40625 -1.09375 
Q 37.203125 -1.09375 43 3.296875 
Q 48.796875 7.703125 50.5 16.40625 
z
" id="HelveticaNeue-101"/>
     <path d="M 6.90625 71.40625 
L 6.90625 0 
L 15.40625 0 
L 15.40625 71.40625 
z
" id="HelveticaNeue-108"/>
     <path d="M 41.5 35.09375 
L 50.296875 35.09375 
Q 49.796875 39.703125 47.890625 43.046875 
Q 46 46.40625 43.046875 48.59375 
Q 40.09375 50.796875 36.25 51.84375 
Q 32.40625 52.90625 28 52.90625 
Q 21.90625 52.90625 17.296875 50.75 
Q 12.703125 48.59375 9.640625 44.84375 
Q 6.59375 41.09375 5.09375 36.046875 
Q 3.59375 31 3.59375 25.203125 
Q 3.59375 19.40625 5.140625 14.546875 
Q 6.703125 9.703125 9.75 6.203125 
Q 12.796875 2.703125 17.34375 0.796875 
Q 21.90625 -1.09375 27.796875 -1.09375 
Q 37.703125 -1.09375 43.453125 4.09375 
Q 49.203125 9.296875 50.59375 18.90625 
L 41.90625 18.90625 
Q 41.09375 12.90625 37.546875 9.59375 
Q 34 6.296875 27.703125 6.296875 
Q 23.703125 6.296875 20.796875 7.890625 
Q 17.90625 9.5 16.09375 12.140625 
Q 14.296875 14.796875 13.4375 18.1875 
Q 12.59375 21.59375 12.59375 25.203125 
Q 12.59375 29.09375 13.390625 32.75 
Q 14.203125 36.40625 16.046875 39.203125 
Q 17.90625 42 21 43.703125 
Q 24.09375 45.40625 28.703125 45.40625 
Q 34.09375 45.40625 37.296875 42.703125 
Q 40.5 40 41.5 35.09375 
z
" id="HelveticaNeue-99"/>
     <path d="M 29.703125 0 
L 48.59375 51.703125 
L 39.703125 51.703125 
L 25.59375 8.59375 
L 25.40625 8.59375 
L 10.90625 51.703125 
L 1.40625 51.703125 
L 20.59375 0 
z
" id="HelveticaNeue-118"/>
     <path d="M 52.203125 0.203125 
Q 50 -1.09375 46.09375 -1.09375 
Q 42.796875 -1.09375 40.84375 0.75 
Q 38.90625 2.59375 38.90625 6.796875 
Q 35.40625 2.59375 30.75 0.75 
Q 26.09375 -1.09375 20.703125 -1.09375 
Q 17.203125 -1.09375 14.046875 -0.296875 
Q 10.90625 0.5 8.59375 2.203125 
Q 6.296875 3.90625 4.9375 6.65625 
Q 3.59375 9.40625 3.59375 13.296875 
Q 3.59375 17.703125 5.09375 20.5 
Q 6.59375 23.296875 9.046875 25.046875 
Q 11.5 26.796875 14.640625 27.6875 
Q 17.796875 28.59375 21.09375 29.203125 
Q 24.59375 29.90625 27.75 30.25 
Q 30.90625 30.59375 33.296875 31.25 
Q 35.703125 31.90625 37.09375 33.15625 
Q 38.5 34.40625 38.5 36.796875 
Q 38.5 39.59375 37.453125 41.296875 
Q 36.40625 43 34.75 43.890625 
Q 33.09375 44.796875 31.046875 45.09375 
Q 29 45.40625 27 45.40625 
Q 21.59375 45.40625 18 43.34375 
Q 14.40625 41.296875 14.09375 35.59375 
L 5.59375 35.59375 
Q 5.796875 40.40625 7.59375 43.703125 
Q 9.40625 47 12.40625 49.046875 
Q 15.40625 51.09375 19.25 52 
Q 23.09375 52.90625 27.5 52.90625 
Q 31 52.90625 34.453125 52.40625 
Q 37.90625 51.90625 40.703125 50.34375 
Q 43.5 48.796875 45.203125 46 
Q 46.90625 43.203125 46.90625 38.703125 
L 46.90625 12.09375 
Q 46.90625 9.09375 47.25 7.6875 
Q 47.59375 6.296875 49.59375 6.296875 
Q 50.703125 6.296875 52.203125 6.796875 
z
M 38.40625 26.703125 
Q 36.796875 25.5 34.1875 24.953125 
Q 31.59375 24.40625 28.75 24.046875 
Q 25.90625 23.703125 23 23.25 
Q 20.09375 22.796875 17.796875 21.796875 
Q 15.5 20.796875 14.046875 18.9375 
Q 12.59375 17.09375 12.59375 13.90625 
Q 12.59375 11.796875 13.4375 10.34375 
Q 14.296875 8.90625 15.640625 8 
Q 17 7.09375 18.796875 6.6875 
Q 20.59375 6.296875 22.59375 6.296875 
Q 26.796875 6.296875 29.796875 7.4375 
Q 32.796875 8.59375 34.6875 10.34375 
Q 36.59375 12.09375 37.5 14.140625 
Q 38.40625 16.203125 38.40625 18 
z
" id="HelveticaNeue-97"/>
     <path d="M 6.09375 51.703125 
L 6.09375 0 
L 14.59375 0 
L 14.59375 23 
Q 14.59375 28 15.59375 31.84375 
Q 16.59375 35.703125 18.796875 38.390625 
Q 21 41.09375 24.59375 42.5 
Q 28.203125 43.90625 33.296875 43.90625 
L 33.296875 52.90625 
Q 26.40625 53.09375 21.90625 50.09375 
Q 17.40625 47.09375 14.296875 40.796875 
L 14.09375 40.796875 
L 14.09375 51.703125 
z
" id="HelveticaNeue-114"/>
     <path d="M 15.40625 61 
L 15.40625 71.40625 
L 6.90625 71.40625 
L 6.90625 61 
z
M 6.90625 51.703125 
L 6.90625 0 
L 15.40625 0 
L 15.40625 51.703125 
z
" id="HelveticaNeue-105"/>
     <path d="M 6.40625 51.703125 
L 6.40625 0 
L 14.90625 0 
L 14.90625 29.203125 
Q 14.90625 32.703125 15.84375 35.640625 
Q 16.796875 38.59375 18.6875 40.796875 
Q 20.59375 43 23.4375 44.203125 
Q 26.296875 45.40625 30.203125 45.40625 
Q 35.09375 45.40625 37.890625 42.59375 
Q 40.703125 39.796875 40.703125 35 
L 40.703125 0 
L 49.203125 0 
L 49.203125 34 
Q 49.203125 38.203125 48.34375 41.640625 
Q 47.5 45.09375 45.390625 47.59375 
Q 43.296875 50.09375 39.890625 51.5 
Q 36.5 52.90625 31.40625 52.90625 
Q 19.90625 52.90625 14.59375 43.5 
L 14.40625 43.5 
L 14.40625 51.703125 
z
" id="HelveticaNeue-110"/>
     <path d="M 51 4.40625 
L 51 51.703125 
L 43 51.703125 
L 43 44.296875 
L 42.90625 44.296875 
Q 40.59375 48.59375 36.5 50.75 
Q 32.40625 52.90625 27.5 52.90625 
Q 20.796875 52.90625 16.1875 50.34375 
Q 11.59375 47.796875 8.796875 43.84375 
Q 6 39.90625 4.796875 35.046875 
Q 3.59375 30.203125 3.59375 25.59375 
Q 3.59375 20.296875 5.046875 15.546875 
Q 6.5 10.796875 9.390625 7.25 
Q 12.296875 3.703125 16.59375 1.59375 
Q 20.90625 -0.5 26.703125 -0.5 
Q 31.703125 -0.5 36.140625 1.75 
Q 40.59375 4 42.796875 8.796875 
L 43 8.796875 
L 43 5.40625 
Q 43 1.09375 42.140625 -2.5 
Q 41.296875 -6.09375 39.390625 -8.640625 
Q 37.5 -11.203125 34.59375 -12.640625 
Q 31.703125 -14.09375 27.5 -14.09375 
Q 25.40625 -14.09375 23.09375 -13.640625 
Q 20.796875 -13.203125 18.84375 -12.203125 
Q 16.90625 -11.203125 15.546875 -9.59375 
Q 14.203125 -8 14.09375 -5.703125 
L 5.59375 -5.703125 
Q 5.796875 -9.90625 7.796875 -12.796875 
Q 9.796875 -15.703125 12.84375 -17.5 
Q 15.90625 -19.296875 19.65625 -20.09375 
Q 23.40625 -20.90625 27 -20.90625 
Q 39.40625 -20.90625 45.203125 -14.59375 
Q 51 -8.296875 51 4.40625 
z
M 27.203125 6.90625 
Q 23 6.90625 20.203125 8.65625 
Q 17.40625 10.40625 15.703125 13.25 
Q 14 16.09375 13.296875 19.59375 
Q 12.59375 23.09375 12.59375 26.59375 
Q 12.59375 30.296875 13.4375 33.6875 
Q 14.296875 37.09375 16.140625 39.6875 
Q 18 42.296875 20.890625 43.84375 
Q 23.796875 45.40625 27.90625 45.40625 
Q 31.90625 45.40625 34.703125 43.796875 
Q 37.5 42.203125 39.25 39.546875 
Q 41 36.90625 41.796875 33.59375 
Q 42.59375 30.296875 42.59375 26.90625 
Q 42.59375 23.296875 41.75 19.6875 
Q 40.90625 16.09375 39.09375 13.25 
Q 37.296875 10.40625 34.34375 8.65625 
Q 31.40625 6.90625 27.203125 6.90625 
z
" id="HelveticaNeue-103"/>
     <path d="M 18.203125 51.703125 
L 18.203125 67.203125 
L 9.703125 67.203125 
L 9.703125 51.703125 
L 0.90625 51.703125 
L 0.90625 44.203125 
L 9.703125 44.203125 
L 9.703125 11.296875 
Q 9.703125 7.703125 10.390625 5.5 
Q 11.09375 3.296875 12.546875 2.09375 
Q 14 0.90625 16.34375 0.453125 
Q 18.703125 0 22 0 
L 28.5 0 
L 28.5 7.5 
L 24.59375 7.5 
Q 22.59375 7.5 21.34375 7.640625 
Q 20.09375 7.796875 19.390625 8.296875 
Q 18.703125 8.796875 18.453125 9.6875 
Q 18.203125 10.59375 18.203125 12.09375 
L 18.203125 44.203125 
L 28.5 44.203125 
L 28.5 51.703125 
z
" id="HelveticaNeue-116"/>
     <path d="M 11.59375 16.296875 
L 3.09375 16.296875 
Q 3.296875 11.5 5.09375 8.140625 
Q 6.90625 4.796875 9.90625 2.75 
Q 12.90625 0.703125 16.796875 -0.1875 
Q 20.703125 -1.09375 25 -1.09375 
Q 28.90625 -1.09375 32.84375 -0.34375 
Q 36.796875 0.40625 39.9375 2.296875 
Q 43.09375 4.203125 45.046875 7.296875 
Q 47 10.40625 47 15.09375 
Q 47 18.796875 45.546875 21.296875 
Q 44.09375 23.796875 41.75 25.4375 
Q 39.40625 27.09375 36.34375 28.09375 
Q 33.296875 29.09375 30.09375 29.796875 
Q 27.09375 30.5 24.09375 31.140625 
Q 21.09375 31.796875 18.6875 32.75 
Q 16.296875 33.703125 14.75 35.140625 
Q 13.203125 36.59375 13.203125 38.796875 
Q 13.203125 40.796875 14.203125 42.046875 
Q 15.203125 43.296875 16.796875 44.046875 
Q 18.40625 44.796875 20.34375 45.09375 
Q 22.296875 45.40625 24.203125 45.40625 
Q 26.296875 45.40625 28.34375 44.953125 
Q 30.40625 44.5 32.09375 43.5 
Q 33.796875 42.5 34.890625 40.84375 
Q 36 39.203125 36.203125 36.703125 
L 44.703125 36.703125 
Q 44.40625 41.40625 42.703125 44.546875 
Q 41 47.703125 38.140625 49.546875 
Q 35.296875 51.40625 31.59375 52.15625 
Q 27.90625 52.90625 23.5 52.90625 
Q 20.09375 52.90625 16.640625 52.046875 
Q 13.203125 51.203125 10.453125 49.453125 
Q 7.703125 47.703125 5.953125 44.890625 
Q 4.203125 42.09375 4.203125 38.203125 
Q 4.203125 33.203125 6.703125 30.390625 
Q 9.203125 27.59375 12.953125 26.046875 
Q 16.703125 24.5 21.09375 23.640625 
Q 25.5 22.796875 29.25 21.75 
Q 33 20.703125 35.5 19 
Q 38 17.296875 38 14 
Q 38 11.59375 36.796875 10.046875 
Q 35.59375 8.5 33.75 7.703125 
Q 31.90625 6.90625 29.703125 6.59375 
Q 27.5 6.296875 25.5 6.296875 
Q 22.90625 6.296875 20.453125 6.796875 
Q 18 7.296875 16.046875 8.4375 
Q 14.09375 9.59375 12.890625 11.546875 
Q 11.703125 13.5 11.59375 16.296875 
z
" id="HelveticaNeue-115"/>
    </defs>
    <g transform="translate(152.127187 35.472)scale(0.13 -0.13)">
     <use xlink:href="#HelveticaNeue-77"/>
     <use x="87.099991" xlink:href="#HelveticaNeue-111"/>
     <use x="144.499985" xlink:href="#HelveticaNeue-100"/>
     <use x="203.799973" xlink:href="#HelveticaNeue-101"/>
     <use x="257.499969" xlink:href="#HelveticaNeue-108"/>
     <use x="279.699966" xlink:href="#HelveticaNeue-108"/>
     <use x="301.899963" xlink:href="#HelveticaNeue-101"/>
     <use x="355.59996" xlink:href="#HelveticaNeue-100"/>
     <use x="414.899948" xlink:href="#HelveticaNeue-32"/>
     <use x="442.699936" xlink:href="#HelveticaNeue-99"/>
     <use x="496.399933" xlink:href="#HelveticaNeue-111"/>
     <use x="553.799927" xlink:href="#HelveticaNeue-118"/>
     <use x="603.799911" xlink:href="#HelveticaNeue-97"/>
     <use x="657.499908" xlink:href="#HelveticaNeue-114"/>
     <use x="690.799896" xlink:href="#HelveticaNeue-121"/>
     <use x="740.799881" xlink:href="#HelveticaNeue-105"/>
     <use x="762.999878" xlink:href="#HelveticaNeue-110"/>
     <use x="818.599869" xlink:href="#HelveticaNeue-103"/>
     <use x="875.999863" xlink:href="#HelveticaNeue-32"/>
     <use x="903.79985" xlink:href="#HelveticaNeue-100"/>
     <use x="963.099838" xlink:href="#HelveticaNeue-97"/>
     <use x="1016.799835" xlink:href="#HelveticaNeue-116"/>
     <use x="1048.29982" xlink:href="#HelveticaNeue-97"/>
     <use x="1101.999817" xlink:href="#HelveticaNeue-32"/>
     <use x="1129.799805" xlink:href="#HelveticaNeue-115"/>
     <use x="1179.799789" xlink:href="#HelveticaNeue-101"/>
     <use x="1233.499786" xlink:href="#HelveticaNeue-116"/>
     <use x="1264.999771" xlink:href="#HelveticaNeue-46"/>
    </g>
   </g>
  </g>
 </g>
 <defs>
  <clipPath id="pddb49b7da4">
   <rect height="266.112" width="357.12" x="57.6" y="41.472"/>
  </clipPath>
 </defs>
</svg>
